<?xml version="1.0" encoding="UTF-8"?>
<svg version="1.1" xmlns="http://www.w3.org/2000/svg" width="1024" height="1024">
<path d="M0 0 C337.92 0 675.84 0 1024 0 C1024 337.92 1024 675.84 1024 1024 C686.08 1024 348.16 1024 0 1024 C0 686.08 0 348.16 0 0 Z " fill="#F8F8F8" transform="translate(0,0)"/>
<path d="M0 0 C0.7307373 0.31936523 1.46147461 0.63873047 2.21435547 0.96777344 C10.5211687 4.61973105 18.5186715 8.70825641 26.375 13.25 C27.09518311 13.66233887 27.81536621 14.07467773 28.55737305 14.49951172 C32.10992506 16.6073564 34.81831609 18.3694115 37 22 C36.48050781 22.81082031 35.96101563 23.62164062 35.42578125 24.45703125 C27.72024948 36.55215559 27.72024948 36.55215559 23 50 C19.22397661 49.33470064 16.5036011 47.60791609 13.25 45.625 C-17.45529944 27.63892711 -51.6171702 16.99324444 -87 14 C-87 14.66 -87 15.32 -87 16 C-86.30447021 16.26248535 -85.60894043 16.5249707 -84.89233398 16.79541016 C-81.72144212 18.11601288 -78.7515454 19.65304781 -75.72265625 21.2734375 C-75.1239119 21.59297897 -74.52516754 21.91252045 -73.90827942 22.241745 C-71.95824749 23.28349857 -70.01032766 24.32913161 -68.0625 25.375 C-66.69879733 26.10486126 -65.33502712 26.83459635 -63.97119141 27.56420898 C-55.38690936 32.1611321 -46.82625707 36.80022964 -38.28735352 41.48095703 C-31.33377922 45.2880856 -24.34589874 49.02921247 -17.35183716 52.76116943 C25.23112762 75.49931193 25.23112762 75.49931193 28.875 87.125 C34.11362202 102.25202869 44.13841918 116.95631833 58.40795898 124.71313477 C64.5987245 128.13199712 69.46436775 131.10463684 71.87060547 137.99243164 C72.58888492 140.6152962 73.19881698 143.24440808 73.64135742 145.92822266 C73.97236745 148.00603016 73.97236745 148.00603016 74.5246582 150.03662109 C76.54288549 158.20745924 76.33658062 166.49275361 76.31567383 174.85546875 C76.31254011 177.46658157 76.3359382 180.07652871 76.36132812 182.6875 C76.45529716 207.50089514 71.79914566 236.33260334 54 255 C53.67 255.99 53.34 256.98 53 258 C53.58265625 258.26296875 54.1653125 258.5259375 54.765625 258.796875 C65.78337703 264.72951071 72.51655503 278.89788926 76.2578125 290.3203125 C82.7698374 313.83214978 79.18915882 339.93995142 67.3125 361.1875 C55.20314581 379.87050361 39.17873409 389.26986706 19.8671875 399.46923828 C15.95543543 401.55768221 12.09990205 403.73775972 8.25 405.9375 C3.07257154 408.88019318 -2.17193496 411.61079607 -7.51953125 414.23046875 C-12.17250967 416.59612445 -16.73809025 419.11150487 -21.3125 421.625 C-28.9947763 425.84414867 -36.71759269 429.96857279 -44.5 434 C-52.74931403 438.27683286 -60.92915075 442.66216787 -69.07348633 447.13525391 C-78.92260106 452.53162254 -88.84752293 457.78409804 -98.77319336 463.0378418 C-99.42747818 463.38471542 -100.081763 463.73158905 -100.75587463 464.088974 C-102.03904019 464.76789038 -103.3235546 465.44426426 -104.60948181 466.11793518 C-107.5208705 467.64932396 -110.36607391 469.21931934 -113.18994141 470.91113281 C-114.14433105 471.47928711 -115.0987207 472.04744141 -116.08203125 472.6328125 C-117.30176636 473.39295654 -117.30176636 473.39295654 -118.54614258 474.16845703 C-123.10456647 475.71317813 -126.82751062 473.11847589 -130.91210938 471.12744141 C-132.39162388 470.3733124 -133.86871457 469.61441517 -135.34375 468.8515625 C-136.141297 468.44301025 -136.93884399 468.03445801 -137.76055908 467.61352539 C-140.3427961 466.2886716 -142.92153617 464.95718046 -145.5 463.625 C-147.28545902 462.70617325 -149.07094089 461.78739088 -150.85644531 460.86865234 C-160.72626844 455.78004318 -170.54217735 450.6148442 -180.2578125 445.23681641 C-187.27299869 441.3618002 -194.37555453 437.66971646 -201.5 434 C-212.58731597 428.28639735 -223.57931661 422.419019 -234.48950195 416.37402344 C-236.26536511 415.40207383 -238.05148795 414.44876076 -239.84448242 413.50878906 C-253.06930091 406.52327458 -263.52999712 396.76124724 -268.35871065 382.23078024 C-270.5830039 374.4933846 -271.29559704 366.78286554 -271.26742554 358.76724243 C-271.27195665 357.7992142 -271.27648776 356.83118598 -271.28115618 355.83382356 C-271.29371355 352.62305248 -271.29218546 349.41245291 -271.29052734 346.20166016 C-271.2965179 343.8861825 -271.30332466 341.57070683 -271.31088257 339.25523376 C-271.32849345 332.98867245 -271.33323581 326.72216581 -271.33451414 320.45558214 C-271.33593879 316.53552086 -271.34021427 312.61547335 -271.34550858 308.6954155 C-271.3630385 295.71125541 -271.37235085 282.72713393 -271.37084763 269.74296255 C-271.37076772 269.04467944 -271.3706878 268.34639633 -271.37060547 267.62695312 C-271.37052371 266.92780798 -271.37044195 266.22866283 -271.37035771 265.50833146 C-271.36954485 254.17870186 -271.3886886 242.84920521 -271.4168822 231.51961406 C-271.44566944 219.85859354 -271.4590538 208.19764386 -271.45769465 196.53658712 C-271.45718584 190.00089961 -271.46282512 183.46536277 -271.48405075 176.92970657 C-271.50347379 170.7818149 -271.50352956 164.63421707 -271.48901749 158.48631477 C-271.48693354 156.23740648 -271.49160537 153.98847958 -271.5037384 151.73960304 C-271.61110926 130.4502011 -267.88434371 114.33329123 -252.65625 98.65625 C-237.08834356 83.08834356 -237.08834356 83.08834356 -227.76953125 82.953125 C-222.55662808 84.40085355 -218.31850482 86.93435968 -213.6875 89.6875 C-211.63035863 90.88141226 -209.57170631 92.07272407 -207.51171875 93.26171875 C-206.44356934 93.87966309 -205.37541992 94.49760742 -204.27490234 95.13427734 C-198.90547145 98.19325982 -193.45320686 101.09385119 -188 104 C-178.78559884 108.92661952 -169.65702411 113.98053343 -160.58032227 119.15600586 C-152.41975374 123.79674725 -144.17339387 128.27005124 -135.89013672 132.68774414 C-134.94541504 133.19426514 -134.00069336 133.70078613 -133.02734375 134.22265625 C-132.19968506 134.66359619 -131.37202637 135.10453613 -130.51928711 135.55883789 C-129.68792236 136.03442139 -128.85655762 136.51000488 -128 137 C-126.97070877 137.44187149 -125.94141754 137.88374298 -124.88093567 138.33900452 C-121.57107466 141.39617976 -121.54763733 141.96605246 -121.30780029 146.26205444 C-121.30312822 148.51387795 -121.33171059 150.76590982 -121.38574219 153.01708984 C-121.39389198 154.86156456 -121.39389198 154.86156456 -121.40220642 156.74330139 C-121.41724492 159.41635627 -121.44296137 162.08689459 -121.48607635 164.75941086 C-121.55261054 168.98728427 -121.56917989 173.21444384 -121.57720947 177.44277954 C-121.60624617 188.70581028 -121.69874721 199.96813627 -121.82632184 211.23046362 C-121.90996497 218.63080343 -121.96500343 226.03011213 -121.96589589 233.43096507 C-121.96871354 237.63235763 -122.01705373 241.82996958 -122.09967089 246.03051353 C-122.15040346 249.26165973 -122.13596604 252.49265004 -122.13183594 255.72412109 C-122.16786423 256.88380905 -122.20389252 258.04349701 -122.24101257 259.23832703 C-122.20050043 262.45490647 -122.07032837 264.96425533 -121 268 C-117.98738878 270.81460748 -114.75048027 272.36265829 -111 274 C-109.41890157 274.86542551 -107.84457705 275.74349509 -106.28125 276.640625 C-104.68873895 277.512683 -103.09495572 278.38242126 -101.5 279.25 C-96.2514352 282.10688925 -91.0157391 284.97485738 -85.84375 287.96875 C-85.02841797 288.43635742 -84.21308594 288.90396484 -83.37304688 289.38574219 C-81.82176169 290.27757157 -80.27589146 291.17890467 -78.73632812 292.09082031 C-78.03958984 292.48881836 -77.34285156 292.88681641 -76.625 293.296875 C-76.01914062 293.65104492 -75.41328125 294.00521484 -74.7890625 294.37011719 C-72.39662137 295.21243407 -71.37369161 294.88173461 -69 294 C-67.07514442 293.05904196 -65.17528086 292.06638077 -63.29296875 291.04296875 C-62.16068848 290.43106689 -61.0284082 289.81916504 -59.86181641 289.1887207 C-59.26314758 288.86263824 -58.66447876 288.53655579 -58.04766846 288.20059204 C-54.88167991 286.47631928 -51.70802531 284.76625597 -48.53515625 283.0546875 C-47.89479431 282.70878067 -47.25443237 282.36287384 -46.59466553 282.00648499 C-40.8022763 278.88200231 -34.96938591 275.83851172 -29.125 272.8125 C10.45328779 253.967273 10.45328779 253.967273 36 220 C38.97203889 210.35628876 40.15619862 200.94861954 40.203125 190.89453125 C40.20882507 189.93407394 40.21452515 188.97361664 40.22039795 187.98405457 C40.22980903 185.95772388 40.23636637 183.93137815 40.24023438 181.9050293 C40.24991505 178.83940235 40.2809658 175.77445367 40.3125 172.70898438 C40.38666834 159.3793981 39.55554784 147.80875854 33.25 135.8125 C32.89711914 135.13179443 32.54423828 134.45108887 32.18066406 133.74975586 C22.94623235 116.36156156 7.94916381 108.5527951 -8.89941406 99.64306641 C-13.17808886 97.37570567 -17.43956101 95.07689235 -21.70166016 92.77856445 C-23.91153654 91.58693237 -26.12215663 90.3966785 -28.33349609 89.20776367 C-36.03879479 85.06501376 -43.72000299 80.8799979 -51.39282227 76.67749023 C-56.65484157 73.80304785 -61.93404431 70.9628533 -67.23046875 68.15234375 C-67.85856445 67.81903549 -68.48666016 67.48572723 -69.13378906 67.14231873 C-69.76816895 66.80571732 -70.40254883 66.46911591 -71.05615234 66.12231445 C-84.38173649 59.0517376 -97.60636669 51.8384968 -110.68847656 44.32324219 C-112.73115596 43.153901 -114.78096983 41.9991131 -116.8359375 40.8515625 C-126.27867844 35.51233367 -132.2712552 30.01083013 -138.7890625 21.29296875 C-140.78802847 18.92747594 -140.78802847 18.92747594 -143.17578125 18.05078125 C-147.47955514 17.97339666 -151.40208636 18.96208108 -155.5625 20 C-156.48925537 20.2278418 -157.41601074 20.45568359 -158.37084961 20.69042969 C-193.71135215 29.66864945 -225.69510141 46.94748545 -253 71 C-253.72445312 71.61359375 -254.44890625 72.2271875 -255.1953125 72.859375 C-273.37262512 88.31377035 -288.19754249 107.47353797 -299.95898438 128.16894531 C-300.95431381 129.91964202 -301.96890522 131.65934556 -302.984375 133.3984375 C-322.84266414 168.74619216 -332.25606038 209.62239115 -332.13037109 249.95898438 C-332.12500323 251.99877344 -332.13036276 254.03834245 -332.13671875 256.078125 C-332.16115991 293.4351798 -323.0639505 332.13535019 -305.06103516 365.05029297 C-303.91442846 367.15724214 -302.80703487 369.28257764 -301.69921875 371.41015625 C-296.41782526 381.39725641 -290.38898443 390.43563164 -283.36376953 399.27783203 C-282.17994162 400.77276975 -281.02299999 402.28892295 -279.87109375 403.80859375 C-268.87673824 417.94419369 -255.51265778 430.54511457 -241 441 C-239.97003906 441.75152344 -238.94007813 442.50304687 -237.87890625 443.27734375 C-234.62854266 445.58627869 -231.33593645 447.81762857 -228 450 C-227.35643555 450.42249023 -226.71287109 450.84498047 -226.04980469 451.28027344 C-189.18272151 475.23425392 -147.82238647 488.20550922 -103.8125 488.25 C-102.76677322 488.25151062 -102.76677322 488.25151062 -101.69992065 488.25305176 C-88.63534649 488.24039211 -75.88442165 487.26610431 -63 485 C-62.26426758 484.87141602 -61.52853516 484.74283203 -60.77050781 484.61035156 C-18.43072139 476.77998165 21.99574679 455.62832482 53 426 C55.50675665 423.77579684 58.02352959 421.56415137 60.55078125 419.36328125 C82.6797445 398.01077285 97.6113612 370.47023416 109.06079102 342.30688477 C109.70351083 340.72823659 110.35550297 339.15334048 111.01538086 337.58178711 C113.49295559 331.59240177 115.40124898 325.57456598 117.0625 319.3125 C117.32071533 318.34481689 117.57893066 317.37713379 117.8449707 316.38012695 C119.88232011 308.63716862 121.75542746 300.91448 123 293 C123.13535156 292.15791992 123.27070312 291.31583984 123.41015625 290.44824219 C129.73543154 249.60462901 126.8332324 204.55791973 111.375 165.875 C109.83940631 161.9355188 109.37522224 158.20248911 109 154 C110.16402344 153.58041016 110.16402344 153.58041016 111.3515625 153.15234375 C118.94131889 150.33562032 125.9767688 147.08438709 133.1015625 143.2578125 C136 142 136 142 139 143 C140.0715332 144.95166016 140.0715332 144.95166016 141.05078125 147.5390625 C141.41655273 148.49973633 141.78232422 149.46041016 142.15917969 150.45019531 C142.53977539 151.49788086 142.92037109 152.54556641 143.3125 153.625 C143.90853027 155.25066895 143.90853027 155.25066895 144.51660156 156.90917969 C153.74537647 182.65260442 160.06470425 210.69615167 160.203125 238.125 C160.21018463 239.06168518 160.21724426 239.99837036 160.22451782 240.96343994 C160.50124949 288.50328667 153.27667428 333.01281036 132 376 C131.63503418 376.75684082 131.27006836 377.51368164 130.89404297 378.29345703 C121.26254665 398.16710422 108.95411544 416.74456773 94 433 C92.90558594 434.25490234 92.90558594 434.25490234 91.7890625 435.53515625 C81.82785952 446.92203326 71.08357514 457.87122444 59 467 C58.37851074 467.47614746 57.75702148 467.95229492 57.11669922 468.44287109 C27.79437873 490.7946186 -5.71890339 506.45132381 -41.4375 515.3125 C-42.09167908 515.47785248 -42.74585815 515.64320496 -43.41986084 515.81356812 C-63.86724807 520.92814484 -84.3443881 522.56338139 -105.375 522.4375 C-106.44439819 522.43479095 -107.51379639 522.43208191 -108.61560059 522.42929077 C-124.46123994 522.36851435 -139.5144843 521.57541562 -155 518 C-156.7193252 517.6539211 -158.43938516 517.31147273 -160.16015625 516.97265625 C-200.62675114 508.60884479 -239.59161705 488.73343577 -271 462 C-272.04565157 461.13783697 -273.09258237 460.27722363 -274.140625 459.41796875 C-285.62575351 449.94654443 -295.84438248 439.76511763 -305 428 C-306.00776145 426.73303231 -307.01557757 425.4661081 -308.0234375 424.19921875 C-336.7390471 387.74899734 -354.76866188 345.58524676 -363 300 C-363.17821289 299.03030273 -363.35642578 298.06060547 -363.54003906 297.06152344 C-365.97238364 283.2692786 -366.18637724 269.65416833 -366.18530273 255.68554688 C-366.18747585 252.53501594 -366.20564548 249.38484368 -366.22460938 246.234375 C-366.27029673 230.03427398 -365.63882987 213.82223675 -362.1875 197.9375 C-362.01718262 197.1242627 -361.84686523 196.31102539 -361.67138672 195.47314453 C-347.86300867 131.02990406 -313.85170222 71.18419912 -260 32 C-259.1853125 31.40058594 -258.370625 30.80117187 -257.53125 30.18359375 C-255.05253136 28.40304753 -252.54109361 26.69044261 -250 25 C-249.46665039 24.64502441 -248.93330078 24.29004883 -248.38378906 23.92431641 C-175.6653965 -24.03413267 -80.37117408 -35.78712072 0 0 Z " fill="#171717" transform="translate(615,188)"/>
<path d="M0 0 C23.72564944 11.71181281 47.07181025 24.16899742 70.0793457 37.23486328 C73.02346344 38.90480417 75.97033842 40.48516921 79 42 C79.33 84.57 79.66 127.14 80 171 C89.48851847 176.33729164 98.96040297 181.63263726 108.5625 186.75 C118.12923391 191.87195973 127.60772825 197.12857694 137.03759766 202.49780273 C144.61862257 206.80748996 152.27264923 210.95931579 160 215 C156.61724019 217.73158118 152.94078234 219.7288328 149.1015625 221.73046875 C148.43015228 222.08458328 147.75874207 222.43869781 147.06698608 222.80354309 C144.92136958 223.93481822 142.77342573 225.06157025 140.625 226.1875 C137.82393867 227.65716874 135.02427306 229.12943074 132.2265625 230.60546875 C131.53735718 230.96908508 130.84815186 231.33270142 130.13806152 231.70733643 C124.39543498 234.75444094 118.7544313 237.95851049 113.13720703 241.23022461 C109.89137602 243.06127745 106.59572815 244.73459143 103.25 246.375 C97.18793419 249.35898805 91.28814755 252.57057238 85.39575195 255.87524414 C77.77620685 260.14375994 70.09664915 264.29840839 62.41064453 268.44580078 C61.44884277 268.96513184 60.48704102 269.48446289 59.49609375 270.01953125 C58.56651855 270.51662598 57.63694336 271.0137207 56.67919922 271.52587891 C54.9293437 272.48866619 53.19992478 273.48984516 51.49658203 274.53271484 C50.72556152 275.00016113 49.95454102 275.46760742 49.16015625 275.94921875 C48.49765869 276.36905029 47.83516113 276.78888184 47.15258789 277.22143555 C43.29445526 278.61687447 40.0814389 277.4958935 36.46142578 275.8359375 C35.6311084 275.35382813 34.80079102 274.87171875 33.9453125 274.375 C33.0078418 273.8372998 32.07037109 273.29959961 31.10449219 272.74560547 C30.12125977 272.16955566 29.13802734 271.59350586 28.125 271 C26.0705075 269.81476608 24.01581887 268.62987208 21.9609375 267.4453125 C20.44838379 266.56794434 20.44838379 266.56794434 18.90527344 265.67285156 C16.29624819 264.17057921 13.67472962 262.69705842 11.0390625 261.2421875 C10.30671387 260.83742188 9.57436523 260.43265625 8.81982422 260.015625 C7.47681184 259.27552665 6.13217418 258.53836709 4.78564453 257.8046875 C1.79613022 256.14501677 -0.8346208 254.66738169 -3 252 C-3.37604749 250.07207471 -3.37604749 250.07207471 -3.37752342 247.84256458 C-3.38534666 246.99157651 -3.39316991 246.14058843 -3.40123022 245.26381284 C-3.39453805 244.32861694 -3.38784589 243.39342104 -3.38095093 242.42988586 C-3.3856309 241.43658034 -3.39031087 240.44327482 -3.39513266 239.41986912 C-3.40714344 236.07575862 -3.39760142 232.73205334 -3.38818359 229.38793945 C-3.39224672 226.99656433 -3.39758713 224.60519108 -3.40411377 222.21382141 C-3.41640163 216.38213103 -3.41456316 210.5505704 -3.40587585 204.71887598 C-3.39910487 199.97739658 -3.39818005 195.23594963 -3.4014473 190.49446678 C-3.40213684 189.48275895 -3.40213684 189.48275895 -3.40284032 188.45061257 C-3.4037995 187.08043501 -3.40477214 185.71025746 -3.4057581 184.34007993 C-3.41431911 171.48181022 -3.40446843 158.62360461 -3.388357 145.76534542 C-3.37496837 134.73912062 -3.37726848 123.71299064 -3.39111328 112.68676758 C-3.40718281 99.88274184 -3.41347904 87.07877243 -3.40427649 74.27473801 C-3.40332086 72.90802937 -3.40237775 71.54132071 -3.4014473 70.17461205 C-3.40098447 69.5021798 -3.40052164 68.82974756 -3.40004479 68.13693858 C-3.39745788 63.40526189 -3.40181977 58.67362099 -3.40888596 53.94194984 C-3.41755855 47.56521173 -3.41152803 41.18865235 -3.39420319 34.81193352 C-3.39023911 32.47224855 -3.39137101 30.13254853 -3.39799118 27.79286957 C-3.40620011 24.59672136 -3.39589212 21.40114427 -3.38095093 18.20503235 C-3.38764309 17.28099006 -3.39433526 16.35694776 -3.40123022 15.40490419 C-3.34873606 9.60726192 -2.33461776 5.31734731 0 0 Z " fill="#F8F8F8" transform="translate(381,308)"/>
<path d="M0 0 C12.4041783 9.33778227 20.85473561 22.37564878 23.71875 37.7421875 C25.75207701 54.06528487 21.04811284 69.28941969 11.1875 82.3125 C0.74869876 94.64567727 -13.74826726 101.86206817 -29.78515625 103.3515625 C-44.19065033 104.08691457 -56.37988177 99.58041843 -68 91 C-68.65484375 90.52820313 -69.3096875 90.05640625 -69.984375 89.5703125 C-79.73304999 81.93528828 -87.37008353 68.28706261 -89 56 C-89.73706083 44.8506388 -89.85458058 34.28206198 -85 24 C-84.34644531 22.58847656 -84.34644531 22.58847656 -83.6796875 21.1484375 C-76.48011029 6.86730893 -64.93684902 -2.50669602 -50 -8 C-32.4973005 -13.11837634 -15.23143905 -9.85451145 0 0 Z " fill="#181718" transform="translate(748,210)"/>
<path d="M0 0 C7.58558405 5.27692803 11.87445198 11.99161512 13.875 21 C15.42273917 33.525518 12.34149175 47.70270095 4.875 58 C-2.80255252 67.78775701 -11.85746141 73.49948345 -22.6875 79.3125 C-23.61804199 79.81612061 -24.54858398 80.31974121 -25.50732422 80.83862305 C-35.95445603 86.47770948 -46.44753567 92.0317009 -56.93614197 97.59313965 C-73.44383918 106.34634314 -89.93109832 115.13718506 -106.3125 124.125 C-115.32653298 129.07004176 -124.4261404 133.83961567 -133.56518555 138.54931641 C-134.55043213 139.05769043 -135.53567871 139.56606445 -136.55078125 140.08984375 C-137.49518066 140.57437012 -138.43958008 141.05889648 -139.41259766 141.55810547 C-142.71563968 143.31398002 -145.90927788 145.2310651 -149.07885742 147.21704102 C-151.8584936 148.28067223 -153.29782033 147.87975601 -156.125 147 C-158.03355841 146.10629366 -159.91006882 145.14239009 -161.7578125 144.12890625 C-163.33755859 143.26749023 -163.33755859 143.26749023 -164.94921875 142.38867188 C-166.58310547 141.4847168 -166.58310547 141.4847168 -168.25 140.5625 C-169.34699219 139.96373047 -170.44398438 139.36496094 -171.57421875 138.74804688 C-179.59073795 134.3561747 -179.59073795 134.3561747 -183.125 132 C-183.125 131.34 -183.125 130.68 -183.125 130 C-171.9241596 123.62540407 -160.62034752 117.45290596 -149.28125 111.328125 C-143.51291656 108.21235644 -137.75437007 105.07896898 -132 101.9375 C-131.09926758 101.44588379 -130.19853516 100.95426758 -129.27050781 100.44775391 C-126.55517505 98.96546845 -123.84004933 97.48280452 -121.125 96 C-109.80121537 89.81559708 -98.47211163 83.6415203 -87.125 77.5 C-84.10844378 75.86626482 -81.09201377 74.23229703 -78.07568359 72.59814453 C-76.138805 71.54909544 -74.20163975 70.50057542 -72.26416016 69.45263672 C-65.87082127 65.99296073 -59.491315 62.50915379 -53.125 59 C-52.17834473 58.47986328 -51.23168945 57.95972656 -50.25634766 57.42382812 C-47.41444392 55.85634434 -44.58119007 54.27423843 -41.75 52.6875 C-40.90026611 52.22013428 -40.05053223 51.75276855 -39.17504883 51.27124023 C-31.37579488 46.86107281 -24.64049992 42.08344589 -20.62109375 33.89453125 C-19.99045289 31.48617838 -20.2385847 30.32246367 -21.125 28 C-22.86693366 26.55669901 -22.86693366 26.55669901 -25.08984375 25.45703125 C-26.28963867 24.80637695 -26.28963867 24.80637695 -27.51367188 24.14257812 C-28.35478516 23.70365234 -29.19589844 23.26472656 -30.0625 22.8125 C-31.31836914 22.13670898 -31.31836914 22.13670898 -32.59960938 21.44726562 C-35.42503913 19.93112592 -38.25697086 18.43401457 -41.125 17 C-41.125 16.34 -41.125 15.68 -41.125 15 C-37.63852184 13.04162157 -34.15136095 11.08446498 -30.66357422 9.12841797 C-29.47816636 8.46338571 -28.2929427 7.79802501 -27.10791016 7.13232422 C-25.40055504 6.17328091 -23.69247295 5.21553216 -21.984375 4.2578125 C-20.95795898 3.6817627 -19.93154297 3.10571289 -18.87402344 2.51220703 C-12.29366025 -1.10757713 -7.38665383 -2.36372923 0 0 Z " fill="#F9FAFA" transform="translate(646.125,475)"/>
<path d="M0 0 C2.90836624 1.47224913 5.74640046 3.03926262 8.58691406 4.63842773 C9.64652344 5.22333984 10.70613281 5.80825195 11.79785156 6.41088867 C19.69097468 10.78163529 27.52746479 15.2532211 35.36499023 19.72265625 C44.48408278 24.89273567 53.74032426 29.79328809 63.00787354 34.68997192 C71.38577299 39.11659256 79.73675317 43.57735446 87.99755859 48.2199707 C94.37827845 51.79793039 100.8256544 55.24745772 107.27441406 58.70092773 C115.90243717 63.33099913 124.4929289 68.02006185 133.02441406 72.82592773 C133.92828857 73.33293213 134.83216309 73.83993652 135.76342773 74.36230469 C140.38655303 76.98111799 144.96307081 79.67417685 149.49316406 82.45092773 C150.37166016 82.98717773 151.25015625 83.52342773 152.15527344 84.07592773 C158.1142912 88.51766949 161.58311985 94.84959343 163.58691406 101.88842773 C163.81396484 105.13989258 163.81396484 105.13989258 163.78222656 108.59936523 C163.77255859 110.4652832 163.77255859 110.4652832 163.76269531 112.36889648 C163.73755859 114.29668945 163.73755859 114.29668945 163.71191406 116.26342773 C163.70289063 117.57182617 163.69386719 118.88022461 163.68457031 120.22827148 C163.66106491 123.44851143 163.62820494 126.66837481 163.58691406 129.88842773 C158.98799289 128.49492136 154.8497292 126.59828071 150.63378906 124.32592773 C149.65473351 123.80511879 149.65473351 123.80511879 148.65589905 123.27378845 C146.54697833 122.15011381 144.44184462 121.01955677 142.33691406 119.88842773 C140.87177671 119.10509404 139.40652542 118.32197342 137.94116211 117.5390625 C128.60475826 112.54323835 119.31780258 107.46644562 110.08398438 102.28344727 C105.28130419 99.60036997 100.46101109 96.94904913 95.64309692 94.29345703 C93.76995167 93.26096803 91.897029 92.22807636 90.02416992 91.19506836 C84.97696192 88.41130341 79.92934176 85.62828648 74.88134766 82.84594727 C62.1671894 75.83811933 49.45456168 68.8274673 36.75836182 61.78713989 C35.09473916 60.86491238 33.43044095 59.9439038 31.76611328 59.02294922 C26.64316965 56.17931872 21.55030236 53.29577314 16.49707031 50.32983398 C10.92254501 47.06266792 5.27802556 43.94712238 -0.41308594 40.88842773 C-1.34926758 40.38504883 -2.28544922 39.88166992 -3.25 39.36303711 C-5.18431731 38.32364389 -7.11872561 37.28441999 -9.05322266 36.24536133 C-17.52242251 31.68587552 -25.96905156 27.09265908 -34.28808594 22.26342773 C-34.98885254 21.86220703 -35.68961914 21.46098633 -36.41162109 21.04760742 C-39.54611623 19.20415971 -41.36350559 17.96279825 -43.41308594 14.88842773 C-35.91323761 10.73521677 -28.35553488 6.73602016 -20.66308594 2.95092773 C-19.674375 2.4449707 -18.68566406 1.93901367 -17.66699219 1.41772461 C-11.02533158 -1.83216673 -7.02371228 -3.23542716 0 0 Z " fill="#181718" transform="translate(462.4130859375,238.111572265625)"/>
<path d="M0 0 C7.92 3.96 7.92 3.96 16 8 C18.58532814 8.93481705 18.58532814 8.93481705 21.22288513 9.88851929 C26.02952637 11.68491144 30.00772245 13.70522828 33 18 C35.88860733 27.05152903 35.03392054 37.08150752 34.72369695 46.47629595 C34.61683597 50.26073166 34.60739502 54.04543474 34.58726501 57.83114624 C34.53458846 64.98697652 34.3953413 72.13834948 34.22432369 79.29222333 C34.03377146 87.44160702 33.94070964 95.59121301 33.85550129 103.74227262 C33.67818078 120.49745095 33.37951913 137.24815536 33 154 C33.68707031 153.63543701 34.37414062 153.27087402 35.08203125 152.89526367 C36.43361328 152.19494019 36.43361328 152.19494019 37.8125 151.48046875 C39.15248047 150.77893677 39.15248047 150.77893677 40.51953125 150.06323242 C43 149 43 149 46 149.3125 C49.32354351 151.18199322 52.61985493 153.06975268 55.859375 155.08203125 C58.35041811 156.6033026 60.85430022 158.06895429 63.390625 159.51171875 C64.54437622 160.17300781 64.54437622 160.17300781 65.72143555 160.84765625 C67.2686283 161.7331494 68.81953504 162.61218794 70.37426758 163.484375 C71.08736084 163.89558594 71.8004541 164.30679688 72.53515625 164.73046875 C73.178479 165.09551514 73.82180176 165.46056152 74.48461914 165.83666992 C76 167 76 167 77 170 C74.25587089 171.52451617 71.51173618 173.04902226 68.76757812 174.57348633 C66.36120701 175.91034532 63.95497191 177.24744871 61.54882812 178.5847168 C55.76746782 181.79757802 49.98544292 185.00920861 44.19953918 188.21388245 C41.7268826 189.58351367 39.25473506 190.95406223 36.78262329 192.32467651 C35.59763642 192.98132555 34.41239602 193.63751728 33.22689819 194.29324341 C31.56729162 195.21126572 29.90862464 196.13098602 28.25 197.05078125 C27.30640625 197.57325439 26.3628125 198.09572754 25.390625 198.6340332 C23.55130397 199.68499329 21.76261542 200.82492306 20 202 C14 201 14 201 0 193 C0 129.31 0 65.62 0 0 Z " fill="#161516" transform="translate(407,353)"/>
<path d="M0 0 C4.55630635 0.91126127 7.02983447 1.91559558 10.98828125 4.140625 C11.55976898 4.45907379 12.13125671 4.77752258 12.72006226 5.10562134 C14.58763268 6.14775287 16.44993877 7.19894659 18.3125 8.25 C20.27580302 9.347906 22.24047469 10.44333516 24.20521545 11.53866577 C25.53567272 12.28059133 26.86569802 13.023292 28.19529724 13.76675415 C34.32830428 17.19396862 40.50219462 20.5431687 46.6875 23.875 C54.18874546 27.92362246 61.66205327 32.01615472 69.10253906 36.17529297 C76.7330956 40.4304626 84.42446371 44.57310019 92.11914062 48.7109375 C93.09947266 49.23945313 94.07980469 49.76796875 95.08984375 50.3125 C95.96503662 50.78300781 96.84022949 51.25351562 97.74194336 51.73828125 C100 53 100 53 103 55 C102.14110105 61.30584039 98.86780221 64.15007392 94 68 C85.91736632 73.3244788 77.09105596 77.51064877 68.41943359 81.77392578 C62.57537141 84.66431033 56.84562783 87.74836907 51.125 90.875 C50.19606934 91.38095703 49.26713867 91.88691406 48.31005859 92.40820312 C43.77292826 94.89061979 39.2668396 97.41233492 34.8046875 100.02734375 C33.99241699 100.49736816 33.18014648 100.96739258 32.34326172 101.45166016 C30.82351797 102.33424524 29.3115011 103.23032539 27.80908203 104.14208984 C24.68416191 105.94797799 22.67726573 106.9893344 19.0234375 107.046875 C14.92897998 105.62915586 11.34776121 103.63547746 7.625 101.4375 C6.52091797 100.80038086 6.52091797 100.80038086 5.39453125 100.15039062 C3.59160301 99.10843859 1.79512947 98.05533146 0 97 C-0.75265802 91.33898241 -1.45731177 85.60029968 0 80 C2.98890144 76.49368285 6.51704381 74.92409232 10.69091797 73.07958984 C14.46521731 71.31495126 18.05352671 69.22134069 21.68505859 67.18286133 C24.59664588 65.55092352 27.51562982 63.93579305 30.44921875 62.34375 C31.27768311 61.89193359 32.10614746 61.44011719 32.9597168 60.97460938 C35 60 35 60 37 60 C37 59.34 37 58.68 37 58 C36.18660156 57.76667969 35.37320313 57.53335938 34.53515625 57.29296875 C30.21969511 55.71460672 26.41799207 53.58853373 22.4375 51.3125 C15.00914448 47.10464473 7.52118721 43.04987004 0 39 C0 26.13 0 13.26 0 0 Z " fill="#181718" transform="translate(522,341)"/>
<path d="M0 0 C9.24301263 5.4013342 15.51337799 13.96159378 19 24 C19.75 26.9375 19.75 26.9375 20 30 C20.06316406 30.70382812 20.12632812 31.40765625 20.19140625 32.1328125 C20.76850693 43.71205845 16.6404018 54.37120947 9 63 C1.19775473 70.65058176 -8.73848805 74.47054844 -19.5625 74.5625 C-30.96048595 74.32734738 -38.46931383 71.21605362 -46.80859375 63.31640625 C-50.14210596 59.79274718 -53.05676505 56.31202931 -55.1875 51.9375 C-55.51105469 51.28652344 -55.83460938 50.63554688 -56.16796875 49.96484375 C-59.69925803 41.62569582 -59.82313887 29.36013494 -56.71875 20.91796875 C-51.08560638 9.10116976 -43.31044143 1.7399793 -31.23828125 -3.109375 C-21.1202975 -5.89212566 -9.25083331 -4.92457296 0 0 Z " fill="#1A191A" transform="translate(408,788)"/>
<path d="M0 0 C1.48017617 -0.00456647 2.96035023 -0.00987343 4.44052124 -0.0158844 C7.53205012 -0.0247885 10.62332027 -0.02242152 13.71484375 -0.01245117 C17.6705045 -0.00093468 21.62527608 -0.02122654 25.58082008 -0.05036831 C28.6332462 -0.06873305 31.68545898 -0.06843791 34.73792648 -0.06273079 C36.19633613 -0.06257777 37.65476041 -0.06860644 39.11311722 -0.08102226 C41.15169606 -0.09594152 43.19042207 -0.08262036 45.22900391 -0.06811523 C46.96605087 -0.06786598 46.96605087 -0.06786598 48.7381897 -0.06761169 C52.49297976 0.53990104 54.16602707 1.77044652 56.8359375 4.43359375 C57.7106062 7.82361406 57.46974131 11.00191726 56.8359375 14.43359375 C54.95078527 17.00996846 53.64258893 18.03026803 50.8359375 19.43359375 C49.1684769 19.51785469 47.49768563 19.54084518 45.828125 19.53125 C44.84199219 19.52802734 43.85585938 19.52480469 42.83984375 19.52148438 C41.80730469 19.51310547 40.77476562 19.50472656 39.7109375 19.49609375 C38.15052734 19.48932617 38.15052734 19.48932617 36.55859375 19.48242188 C33.98431788 19.47061327 31.41015604 19.4541445 28.8359375 19.43359375 C28.84481995 20.10122742 28.85370239 20.76886108 28.862854 21.45672607 C28.95128223 28.39944913 29.01165326 35.34201246 29.05566406 42.28515625 C29.07579125 44.87701921 29.10309566 47.46883671 29.13769531 50.06054688 C29.18616251 53.78396824 29.20889566 57.50678974 29.2265625 61.23046875 C29.24720764 62.39100769 29.26785278 63.55154663 29.28912354 64.74725342 C29.28957672 66.36848114 29.28957672 66.36848114 29.29003906 68.02246094 C29.29892151 68.97288269 29.30780396 69.92330444 29.31695557 70.90252686 C28.68953718 74.20393698 27.4291741 75.36259652 24.8359375 77.43359375 C21.14170965 78.66500303 17.68629576 78.63441827 13.8359375 78.671875 C13.04501709 78.67994675 12.25409668 78.68801849 11.43920898 78.69633484 C9.76141542 78.71016587 8.08359384 78.72089242 6.40576172 78.72875977 C4.70678337 78.74021972 3.00783929 78.76057547 1.30908203 78.7902832 C-10.92973827 79.00418174 -22.26933485 78.59674406 -32.1640625 70.43359375 C-34.33639144 67.68197709 -35.08801727 65.88986513 -35.6640625 62.43359375 C-34.98609046 58.36576153 -33.31047969 57.00793509 -30.1640625 54.43359375 C-27.74167164 52.76820003 -26.78343303 52.35171087 -23.859375 52.73828125 C-20.98478078 53.47984324 -18.66324475 54.55328994 -16.0390625 55.93359375 C-12.03234203 58.0282926 -8.69840087 59.51073384 -4.15234375 59.75 C-3.01635742 59.8128418 -3.01635742 59.8128418 -1.85742188 59.87695312 C-1.07173828 59.91626953 -0.28605469 59.95558594 0.5234375 59.99609375 C1.71936523 60.06086914 1.71936523 60.06086914 2.93945312 60.12695312 C4.90475197 60.23286743 6.87032246 60.33371926 8.8359375 60.43359375 C8.8359375 57.13359375 8.8359375 53.83359375 8.8359375 50.43359375 C7.5365625 50.51609375 6.2371875 50.59859375 4.8984375 50.68359375 C-5.56982768 50.66866042 -18.00756977 48.31894475 -26.1640625 41.43359375 C-27.0921875 40.69109375 -28.0203125 39.94859375 -28.9765625 39.18359375 C-33.25472621 33.8053308 -34.80086181 27.4549779 -34.50390625 20.625 C-33.43409637 13.72657077 -29.59076406 9.43285428 -24.45703125 4.9765625 C-16.63836546 -0.28472027 -9.11859752 -0.02462908 0 0 Z " fill="#191919" transform="translate(699.1640625,783.56640625)"/>
<path d="M0 0 C1.18925079 -0.00574036 1.18925079 -0.00574036 2.40252686 -0.01159668 C4.07679517 -0.01431164 5.75110619 -0.00697946 7.42529297 0.00976562 C9.96290024 0.03106971 12.49763984 0.01001146 15.03515625 -0.015625 C24.5599129 -0.03348175 32.51576995 0.07060595 40.07421875 6.53125 C40.60144531 7.19125 41.12867188 7.85125 41.671875 8.53125 C42.21714844 9.19125 42.76242187 9.85125 43.32421875 10.53125 C47.54680341 16.52006813 47.73416725 22.3310655 46.734375 29.53125 C44.96843704 33.3319702 42.69962549 36.56599951 39.734375 39.53125 C40.28867188 39.99015625 40.84296875 40.4490625 41.4140625 40.921875 C42.13851562 41.53546875 42.86296875 42.1490625 43.609375 42.78125 C44.32867187 43.38453125 45.04796875 43.9878125 45.7890625 44.609375 C48.62358745 47.40974905 49.60928845 49.36485851 50.03515625 53.3359375 C50.06163623 60.27369334 49.9599 65.03314542 45.0703125 70.3359375 C38.02713017 77.09851496 30.31109484 78.9974878 20.71875 79 C19.89989319 79.00761353 19.08103638 79.01522705 18.23736572 79.02307129 C16.52318346 79.03378876 14.80893634 79.0367598 13.09472656 79.03222656 C10.47611954 79.03124691 7.86037829 79.07311021 5.2421875 79.1171875 C3.56771439 79.12239034 1.89323119 79.12508276 0.21875 79.125 C-0.5584137 79.14139526 -1.33557739 79.15779053 -2.1362915 79.17468262 C-5.93683592 79.12632671 -7.94437657 78.78204304 -10.96975708 76.42018127 C-13.77797643 72.88654912 -13.89781384 71.16252408 -13.91259766 66.69311523 C-13.92135925 66.0258139 -13.93012085 65.35851257 -13.93914795 64.67098999 C-13.96106297 62.47660306 -13.9466224 60.28424925 -13.9296875 58.08984375 C-13.93305759 56.55957148 -13.93791183 55.02930182 -13.94418335 53.4990387 C-13.95154351 50.29703199 -13.9408765 47.09572411 -13.91748047 43.89379883 C-13.88896762 39.79202241 -13.90541583 35.69187996 -13.93534279 31.59016323 C-13.9534192 28.43219204 -13.9476569 25.27460774 -13.93470383 22.11662483 C-13.93137194 20.60436878 -13.93544935 19.09207743 -13.94710159 17.57986259 C-13.95982046 15.46562648 -13.94042786 13.35402988 -13.91259766 11.23999023 C-13.90861969 10.03817612 -13.90464172 8.836362 -13.90054321 7.59812927 C-13.265625 4.53125 -13.265625 4.53125 -10.96401978 2.14430237 C-7.33990692 -0.02212779 -4.10329046 -0.04398845 0 0 Z " fill="#1A191A" transform="translate(215.265625,783.46875)"/>
<path d="M0 0 C2.97947267 2.45368337 5.68216418 4.7461551 7.625 8.125 C7.80439749 12.43053979 6.91583823 13.8064629 4 17 C-0.0198504 19.53101692 -1.70675762 19.84938244 -6.375 19.125 C-7.60165413 18.49267608 -8.80940358 17.82284958 -10 17.125 C-15.52044725 14.13923281 -21.27213903 14.12053909 -27.375 15.125 C-31.80922425 17.14181228 -34.49807963 19.94663825 -37.375 23.8125 C-39.27893327 30.11927897 -39.47748227 36.49485563 -36.6875 42.5625 C-34.77069094 45.87458349 -32.60938752 48.02264811 -29.375 50.125 C-28.4778125 50.74375 -28.4778125 50.74375 -27.5625 51.375 C-22.82256808 53.00011952 -18.16601161 52.65983607 -13.5625 50.875 C-10.42774762 49.15395948 -9.34106938 47.98259033 -7.375 45.125 C-8.18324219 45.08761719 -8.99148438 45.05023437 -9.82421875 45.01171875 C-11.42716797 44.91310547 -11.42716797 44.91310547 -13.0625 44.8125 C-14.64611328 44.72548828 -14.64611328 44.72548828 -16.26171875 44.63671875 C-19.65999293 44.07815675 -21.64115283 43.19878317 -24.375 41.125 C-25.76813206 36.94560383 -26.2709233 33.01283839 -24.3359375 28.93554688 C-21.43368414 26.25587669 -18.50358697 26.55146851 -14.75 26.59375 C-14.00669434 26.5899231 -13.26338867 26.58609619 -12.49755859 26.58215332 C-10.92739506 26.57943364 -9.35718627 26.586799 -7.78710938 26.60351562 C-5.38308756 26.62492797 -2.98205382 26.60371966 -0.578125 26.578125 C0.94792327 26.58076827 2.47396967 26.58589324 4 26.59375 C4.71881348 26.58565308 5.43762695 26.57755615 6.17822266 26.56921387 C9.42856783 26.63030911 11.16992483 26.69192345 13.57446289 28.98022461 C16.59124642 35.13928649 15.15266912 43.48429484 13.1875 49.8125 C8.92815039 59.93766672 1.37951945 66.37685131 -8.48046875 70.90625 C-16.96273279 73.94076852 -28.10801775 73.59407002 -36.39453125 70.1640625 C-43.33624731 66.52205763 -48.68324361 62.42371882 -53.375 56.125 C-54.48875 54.6709375 -54.48875 54.6709375 -55.625 53.1875 C-60.70833001 44.29167248 -61.45325279 30.85982371 -58.80810547 21.01513672 C-54.5029895 9.28801253 -46.73238699 1.93808718 -35.890625 -3.74609375 C-24.83842524 -8.7058542 -9.77294734 -6.95762122 0 0 Z " fill="#191919" transform="translate(499.375,789.875)"/>
<path d="M0 0 C1.39412109 0.00580078 1.39412109 0.00580078 2.81640625 0.01171875 C3.74324219 -0.01277344 4.67007813 -0.03726563 5.625 -0.0625 C9.65162561 1.05124751 11.29119768 3.26180214 13.37890625 6.69921875 C15.70903285 11.2451406 17.76919343 15.89689521 19.81640625 20.57421875 C20.42072623 21.93828109 21.02571872 23.30204566 21.63134766 24.66552734 C22.90060677 27.5278438 24.1634535 30.39288327 25.42236328 33.25976562 C27.06577576 36.99756155 28.73108371 40.72513124 30.40400696 44.44979858 C31.71314708 47.36760471 33.01392576 50.2890872 34.31277466 53.21148682 C34.93734006 54.61356415 35.56465676 56.01441931 36.1947937 57.41400146 C37.07502955 59.37241995 37.94321637 61.33576092 38.80859375 63.30078125 C39.30601074 64.41791504 39.80342773 65.53504883 40.31591797 66.68603516 C41.3589471 69.64264185 41.76218558 71.60267202 41.37890625 74.69921875 C39.18076267 77.41026249 37.47017222 78.5382123 33.99609375 79.05078125 C30.20520712 79.17525812 27.09704767 78.94900707 23.50390625 77.69921875 C20.48696943 74.8597488 18.84336462 71.55262596 17.37890625 67.69921875 C17.37890625 67.03921875 17.37890625 66.37921875 17.37890625 65.69921875 C7.80890625 66.02921875 -1.76109375 66.35921875 -11.62109375 66.69921875 C-12.94109375 69.33921875 -14.26109375 71.97921875 -15.62109375 74.69921875 C-18.00262353 77.58592152 -19.54452535 78.54542326 -23.24609375 79.07421875 C-27.53066167 79.25654079 -30.59085227 79.32215546 -34.30859375 77.07421875 C-36.01576422 73.98505313 -35.91437297 72.21437968 -35.62109375 68.69921875 C-34.69363796 66.31390912 -33.71758221 64.15387803 -32.55859375 61.88671875 C-31.82769157 60.39732015 -31.10014804 58.9062711 -30.375 57.4140625 C-29.95105957 56.54378418 -29.52711914 55.67350586 -29.09033203 54.77685547 C-25.95765155 48.21478 -22.9929995 41.57409854 -19.99609375 34.94921875 C-19.35684322 33.5379349 -18.71744141 32.12671956 -18.07788086 30.71557617 C-17.76735275 30.03037399 -17.45682465 29.34517181 -17.1368866 28.63920593 C-16.21894838 26.61610861 -15.29851245 24.59416067 -14.37792969 22.57226562 C-13.22700988 20.04292779 -12.0907519 17.50779106 -10.96582031 14.96679688 C-10.45245117 13.82146484 -9.93908203 12.67613281 -9.41015625 11.49609375 C-8.96623535 10.49416992 -8.52231445 9.49224609 -8.06494141 8.45996094 C-4.2306974 1.12860631 -4.2306974 1.12860631 0 0 Z " fill="#19191A" transform="translate(795.62109375,783.30078125)"/>
<path d="M0 0 C2.56640347 -0.36061875 4.80828165 -0.50972242 7.375 -0.5 C8.38433594 -0.54253906 8.38433594 -0.54253906 9.4140625 -0.5859375 C11.3984375 -0.59375 11.3984375 -0.59375 15 0 C18.80969875 3.85817057 20.65548718 8.32449812 22.671875 13.2578125 C22.99915588 14.04268036 23.32643677 14.82754822 23.66363525 15.63619995 C24.34982897 17.28692883 25.03203353 18.93932103 25.71044922 20.59326172 C26.75113193 23.12775671 27.80619357 25.65590335 28.86328125 28.18359375 C29.52950308 29.7913117 30.19489682 31.39937311 30.859375 33.0078125 C31.33271271 34.14224289 31.33271271 34.14224289 31.81561279 35.29959106 C33.05831006 38.34528365 34 40.67764137 34 44 C34.66 44 35.32 44 36 44 C36.17547363 42.94945435 36.17547363 42.94945435 36.35449219 41.87768555 C37.06023959 38.73145083 38.11275297 35.94347297 39.328125 32.95703125 C39.79863281 31.80009766 40.26914062 30.64316406 40.75390625 29.45117188 C41.24761719 28.25041016 41.74132812 27.04964844 42.25 25.8125 C42.72824219 24.63107422 43.20648437 23.44964844 43.69921875 22.23242188 C51.5861517 2.94256553 51.5861517 2.94256553 56 0 C58.77734375 -0.3359375 58.77734375 -0.3359375 61.9375 -0.375 C63.49791016 -0.41753906 63.49791016 -0.41753906 65.08984375 -0.4609375 C68 0 68 0 70.44140625 1.5234375 C72.68412595 5.08705728 71.88601494 8.07222257 71 12 C69.85946755 15.41334414 68.46134759 18.69296867 67.02734375 21.9921875 C66.42533897 23.40940598 66.42533897 23.40940598 65.81117249 24.85525513 C64.52938962 27.86597064 63.23357275 30.87041278 61.9375 33.875 C61.09350215 35.85378351 60.25039554 37.8329474 59.40820312 39.8125 C57.35436112 44.63104674 55.27714563 49.43906198 53.19061279 54.24353027 C52.0254452 56.94109007 50.87868093 59.64586966 49.73486328 62.35253906 C49.03335026 63.98783305 48.33138982 65.6229352 47.62890625 67.2578125 C47.31920395 68.00207489 47.00950165 68.74633728 46.69041443 69.51315308 C45.03828545 73.31545809 43.71009449 75.98341907 40 78 C37.59765625 78.46875 37.59765625 78.46875 35.0625 78.5 C34.22847656 78.5309375 33.39445313 78.561875 32.53515625 78.59375 C28.73404983 77.70350628 27.43268822 76.04279098 25 73 C23.28659577 69.84354968 21.9259995 66.57010106 20.5625 63.25 C20.1485498 62.2707959 19.73459961 61.2915918 19.30810547 60.28271484 C18.38249693 58.09066118 17.46223683 55.89634399 16.54638672 53.70019531 C14.84177442 49.61283477 13.11121337 45.53662256 11.37890625 41.4609375 C9.52347667 37.09546157 7.66822555 32.72994553 5.82250977 28.36035156 C5.39091805 27.33939896 5.39091805 27.33939896 4.9506073 26.29782104 C4.39213753 24.97653513 3.83419015 23.65502828 3.27680969 22.33328247 C1.47804898 18.08190481 -0.39486228 13.87243818 -2.37011719 9.70019531 C-3.31099869 7.16054463 -3.01607858 5.46761941 -2 3 C-1.34 2.01 -0.68 1.02 0 0 Z " fill="#19191A" transform="translate(528,784)"/>
<path d="M0 0 C1.1240625 0.02191406 2.248125 0.04382813 3.40625 0.06640625 C4.5303125 0.06511719 5.654375 0.06382812 6.8125 0.0625 C10.56710083 0.74989535 11.55770536 1.67434101 13.90625 4.62890625 C14.38726807 7.19793701 14.38726807 7.19793701 14.36035156 10.13183594 C14.35989838 11.78309479 14.35989838 11.78309479 14.35943604 13.4677124 C14.33879089 14.65012512 14.31814575 15.83253784 14.296875 17.05078125 C14.29121521 18.26590393 14.28555542 19.48102661 14.27972412 20.73297119 C14.25732734 24.61534968 14.20712187 28.49680653 14.15625 32.37890625 C14.1361894 35.01040334 14.11793787 37.64191489 14.1015625 40.2734375 C14.05745153 46.72557506 13.99050519 53.17717481 13.90625 59.62890625 C14.73350586 59.60795898 15.56076172 59.58701172 16.41308594 59.56542969 C20.1606837 59.48229006 23.90808749 59.43025094 27.65625 59.37890625 C28.95820313 59.34539063 30.26015625 59.311875 31.6015625 59.27734375 C32.85195313 59.26445313 34.10234375 59.2515625 35.390625 59.23828125 C37.11877441 59.20686035 37.11877441 59.20686035 38.88183594 59.17480469 C42.54357191 59.72459714 43.64832694 60.76354194 45.90625 63.62890625 C47.48080739 66.77802104 47.25424118 69.14899441 46.90625 72.62890625 C43.58920762 78.19964516 43.58920762 78.19964516 39.78024292 79.1711731 C37.14578687 79.37442737 34.57522507 79.38193459 31.93359375 79.3203125 C30.97352921 79.31893784 30.01346466 79.31756317 29.02430725 79.31614685 C26.99940838 79.30710239 24.974529 79.28351121 22.94995117 79.24633789 C19.85064808 79.19152824 16.75403432 79.18480925 13.65429688 79.18554688 C11.68487259 79.17080074 9.71546651 79.15331549 7.74609375 79.1328125 C6.35691994 79.12780479 6.35691994 79.12780479 4.93968201 79.12269592 C-1.42351421 78.98181376 -1.42351421 78.98181376 -4.64624023 77.28491211 C-7.55884108 73.95278671 -7.23520133 70.4371347 -7.27075195 66.21728516 C-7.27732315 65.57138931 -7.28389435 64.92549347 -7.29066467 64.26002502 C-7.31035577 62.12517169 -7.3220498 59.99038851 -7.33203125 57.85546875 C-7.33610678 57.12527905 -7.3401823 56.39508934 -7.34438133 55.64277267 C-7.36522257 51.77910395 -7.37953359 47.91547055 -7.38891602 44.05175781 C-7.39998644 40.06467791 -7.43439844 36.07815518 -7.47408772 32.09127235 C-7.50024731 29.02172823 -7.50860713 25.95231715 -7.51219749 22.88267136 C-7.51706392 21.41307174 -7.52867967 19.9434781 -7.54723549 18.47398758 C-7.57161878 16.41531541 -7.57066485 14.35808915 -7.5637207 12.29931641 C-7.56958694 11.12922028 -7.57545319 9.95912415 -7.58149719 8.75357056 C-6.8199955 3.87514745 -4.9164799 0.99943594 0 0 Z " fill="#1A1A1B" transform="translate(295.09375,783.37109375)"/>
<path d="M0 0 C6.0669096 3.3108244 10.65568522 8.86244378 12.69140625 15.46875 C13.56817961 23.11052204 13.57338561 30.01470658 9.2421875 36.56640625 C4.18952739 42.76450568 -0.52977973 45.85336881 -8.65625 46.71875 C-16.14619747 47.08919562 -21.93030289 45.48072016 -27.578125 40.4453125 C-33.7066386 33.97448553 -35.90016743 27.98290056 -35.68359375 19.08984375 C-34.656587 11.91149445 -30.83919948 6.00895804 -25.125 1.65234375 C-16.58342336 -3.9134578 -9.16466956 -3.5689951 0 0 Z " fill="#F9F9F9" transform="translate(726.30859375,234.53125)"/>
<path d="M0 0 C1.69962891 -0.01546875 1.69962891 -0.01546875 3.43359375 -0.03125 C7.26225629 0.61881006 8.21482803 1.45189176 10.5625 4.5 C11.0771637 7.56687927 11.0771637 7.56687927 11.09594727 11.20874023 C11.10456284 11.87428925 11.11317841 12.53983826 11.12205505 13.22555542 C11.14471272 15.42029993 11.13797726 17.6137672 11.12890625 19.80859375 C11.13414235 21.33789956 11.14041878 22.86720214 11.14768982 24.39649963 C11.15809383 27.60018113 11.15353354 30.80341847 11.13891602 34.00708008 C11.12173555 38.10762069 11.1452123 42.2067591 11.18040562 46.30714321 C11.20239464 49.46512595 11.20093455 52.622774 11.1926403 55.7808094 C11.19182144 57.2922526 11.19867263 58.80372053 11.21341133 60.31509209 C11.23088561 62.43155241 11.21629672 64.54550462 11.19360352 66.66186523 C11.19216087 68.4657798 11.19216087 68.4657798 11.19068909 70.30613708 C10.3828519 74.41337374 8.77474569 75.90482315 5.5625 78.5 C3.0625 79.1640625 3.0625 79.1640625 0.5625 79.125 C-0.675 79.14433594 -0.675 79.14433594 -1.9375 79.1640625 C-5.58447914 78.19533367 -7.05511198 76.38610469 -9.4375 73.5 C-10.05895996 70.30613708 -10.05895996 70.30613708 -10.05273438 66.66186523 C-10.05828339 65.9945639 -10.0638324 65.32726257 -10.06954956 64.63973999 C-10.08131153 62.44528218 -10.05711311 60.25290544 -10.03125 58.05859375 C-10.02953805 56.52832636 -10.02960544 54.99805603 -10.03137207 53.4677887 C-10.02972089 50.26575542 -10.01105948 47.06442401 -9.97949219 43.86254883 C-9.93978088 39.76108315 -9.93545188 35.66053472 -9.94295502 31.55891323 C-9.9460261 28.40098182 -9.93389996 25.24325612 -9.91682434 22.08537483 C-9.90980085 20.57313388 -9.90666902 19.06086962 -9.90751648 17.54861259 C-9.90571615 15.4348939 -9.88431791 13.32226937 -9.85742188 11.20874023 C-9.84900269 10.00692612 -9.8405835 8.805112 -9.83190918 7.56687927 C-8.99606727 1.06747111 -6.19807201 -0.05628215 0 0 Z " fill="#161617" transform="translate(630.4375,783.5)"/>
<path d="M0 0 C4.00521387 2.88747977 7.46370991 6.48991981 9.6875 10.9375 C10.6735026 24.6656901 10.6735026 24.6656901 6.6875 29.9375 C0.76857338 35.71941443 -2.84020194 37.36139495 -11.1953125 37.28125 C-15.85040939 36.76790598 -18.90239446 35.09287476 -22.3125 31.9375 C-27.14416143 25.74306227 -27.97042845 20.59339465 -27.3125 12.9375 C-25.28212478 7.27382177 -21.6845518 3.96072065 -17.1875 0.125 C-11.6333846 -2.16909114 -5.66021321 -1.81554009 0 0 Z " fill="#F8F8F8" transform="translate(397.3125,805.0625)"/>
<path d="M0 0 C0.87454834 0.00523682 1.74909668 0.01047363 2.65014648 0.01586914 C3.59438477 0.0190918 4.53862305 0.02231445 5.51147461 0.02563477 C6.50469727 0.03401367 7.49791992 0.04239258 8.52124023 0.05102539 C9.51833008 0.05553711 10.51541992 0.06004883 11.54272461 0.06469727 C14.0147551 0.07652516 16.48675496 0.09446124 18.95874023 0.11352539 C18.95874023 4.40352539 18.95874023 8.69352539 18.95874023 13.11352539 C11.83229629 13.5994193 3.24073056 12.79633656 -2.41625977 8.17211914 C-4.04125977 6.11352539 -4.04125977 6.11352539 -3.85375977 3.42602539 C-2.70283596 0.15031919 -2.70283596 0.15031919 0 0 Z " fill="#F6F7F8" transform="translate(689.041259765625,802.886474609375)"/>
<path d="M0 0 C2.39652528 -0.08139142 4.79025436 -0.14067009 7.1875 -0.1875 C7.86103516 -0.21263672 8.53457031 -0.23777344 9.22851562 -0.26367188 C13.71415591 -0.32931539 16.40396893 0.31144193 20 3 C20.33 3.33 20.66 3.66 21 4 C20.6875 7.5 20.6875 7.5 20 11 C17.703463 12.1482685 16.41686833 12.11561175 13.8671875 12.09765625 C13.06152344 12.09443359 12.25585938 12.09121094 11.42578125 12.08789062 C10.58402344 12.07951172 9.74226562 12.07113281 8.875 12.0625 C8.02550781 12.05798828 7.17601562 12.05347656 6.30078125 12.04882812 C4.20049091 12.03702874 2.1002367 12.01909306 0 12 C0 8.04 0 4.08 0 0 Z " fill="#EFEFF1" transform="translate(222,803)"/>
<path d="M0 0 C3.29215238 -0.08066072 6.58234578 -0.14033374 9.875 -0.1875 C10.81214844 -0.21263672 11.74929687 -0.23777344 12.71484375 -0.26367188 C14.05869141 -0.27817383 14.05869141 -0.27817383 15.4296875 -0.29296875 C16.25710449 -0.3086792 17.08452148 -0.32438965 17.93701172 -0.34057617 C18.61779785 -0.22818604 19.29858398 -0.1157959 20 0 C22.14762184 3.22143276 22.561068 4.2595467 22 8 C20.18814594 10.0615961 18.72024993 10.91504923 15.98388672 11.23779297 C13.56582759 11.29549955 11.1675725 11.26116041 8.75 11.1875 C7.90953125 11.17396484 7.0690625 11.16042969 6.203125 11.14648438 C4.13514062 11.11123464 2.06748729 11.0574302 0 11 C0 7.37 0 3.74 0 0 Z " fill="#F0F1F3" transform="translate(223,833)"/>
<path d="M0 0 C0.66 0.66 1.32 1.32 2 2 C2.66 1.01 3.32 0.02 4 -1 C3.80641369 3.16210575 3.23034176 4.74772093 0.375 7.875 C-3.6448504 10.40601692 -5.33175762 10.72438244 -10 10 C-12.01443972 9.07533914 -13.92938747 8.03232028 -15.8671875 6.95703125 C-19.43648125 5.35542508 -23.12967641 5.17918165 -27 5 C-24.7351351 2.94055308 -23.61118138 2.000952 -20.4921875 1.99609375 C-19.19667969 2.21458984 -19.19667969 2.21458984 -17.875 2.4375 C-15.31682747 2.90639477 -15.31682747 2.90639477 -13 3 C-12.34 2.34 -11.68 1.68 -11 1 C-9.16015625 0.33203125 -9.16015625 0.33203125 -7.0625 -0.1875 C-6.37285156 -0.36667969 -5.68320312 -0.54585937 -4.97265625 -0.73046875 C-3 -1 -3 -1 0 0 Z " fill="#202021" transform="translate(503,799)"/>
<path d="M0 0 C0.99 -0.33 1.98 -0.66 3 -1 C2.79503906 -0.39671875 2.59007812 0.2065625 2.37890625 0.828125 C2.10949219 1.62734375 1.84007812 2.4265625 1.5625 3.25 C1.29566406 4.03890625 1.02882813 4.8278125 0.75390625 5.640625 C0.08045292 7.74821988 -0.49150595 9.84753973 -1 12 C-4.65564909 11.31238981 -7.51867272 9.74550455 -10.75 7.9375 C-11.73484375 7.38964844 -12.7196875 6.84179688 -13.734375 6.27734375 C-14.85585938 5.64505859 -14.85585938 5.64505859 -16 5 C-8.20634921 -2.79365079 -8.20634921 -2.79365079 0 0 Z " fill="#191919" transform="translate(639,226)"/>
<path d="M0 0 C2.55263088 2.274694 3.84144815 4.43202693 5.1875 7.5625 C5.53167969 8.34753906 5.87585938 9.13257813 6.23046875 9.94140625 C7 12 7 12 7 14 C2.71 14 -1.58 14 -6 14 C-1.98214286 3.82142857 -1.98214286 3.82142857 0 0 Z " fill="#E4E3E7" transform="translate(798,817)"/>
<path d="M0 0 C0 0.33 0 0.66 0 1 C-2.31 1.33 -4.62 1.66 -7 2 C-7 2.99 -7 3.98 -7 5 C-10.31114834 6.12880057 -13.58978257 7.21302675 -17 8 C-17 8.66 -17 9.32 -17 10 C-17.61875 10.28875 -18.2375 10.5775 -18.875 10.875 C-21.13325765 11.93720042 -21.13325765 11.93720042 -23 14 C-23.33 13.34 -23.66 12.68 -24 12 C-17.45046715 3.32344845 -11.0220591 -0.8016043 0 0 Z " fill="#E8E8EA" transform="translate(718,232)"/>
<path d="M0 0 C1.32 0.33 2.64 0.66 4 1 C4 1.66 4 2.32 4 3 C3.34 3.66 2.68 4.32 2 5 C2 5.66 2 6.32 2 7 C2.99 7.33 3.98 7.66 5 8 C3.39911152 10.40133271 1.74271938 12.702779 0 15 C-3.05267358 8.77254589 -3.05267358 8.77254589 -2.8125 5.25 C-2 3 -2 3 0 0 Z " fill="#222222" transform="translate(528,784)"/>
<path d="M0 0 C2.10353495 -0.0810206 4.20795952 -0.13919907 6.3125 -0.1875 C7.48425781 -0.22230469 8.65601563 -0.25710938 9.86328125 -0.29296875 C13 0 13 0 14.91796875 1.51171875 C15.27503906 2.00285156 15.63210938 2.49398437 16 3 C15.67 3.99 15.34 4.98 15 6 C12.33333333 6 9.66666667 6 7 6 C7 5.34 7 4.68 7 4 C6.34 4 5.68 4 5 4 C5 3.34 5 2.68 5 2 C4.34 1.67 3.68 1.34 3 1 C2.67 1.66 2.34 2.32 2 3 C2 2.34 2 1.68 2 1 C1.34 0.67 0.68 0.34 0 0 Z " fill="#121213" transform="translate(530,784)"/>
<path d="M0 0 C9.57 0 19.14 0 29 0 C29.66 1.98 30.32 3.96 31 6 C28.03 5.505 28.03 5.505 25 5 C24.67 4.01 24.34 3.02 24 2 C15.75 2 7.5 2 -1 2 C-0.67 1.34 -0.34 0.68 0 0 Z " fill="#E4E3E7" transform="translate(784,849)"/>
<path d="M0 0 C2 2.1875 2 2.1875 3 5 C2.4375 7.75 2.4375 7.75 1 10 C-1.125 10.8125 -1.125 10.8125 -3 11 C-2.896875 10.0925 -2.79375 9.185 -2.6875 8.25 C-2.66048792 4.80271869 -2.66048792 4.80271869 -5.5 2.625 C-6.325 2.08875 -7.15 1.5525 -8 1 C-5.13879744 -0.43060128 -3.15989415 -0.38692581 0 0 Z " fill="#212122" transform="translate(245,802)"/>
<path d="M0 0 C0.50748598 5.32860278 -0.81331664 7.78233085 -4 12 C-4.99 13.485 -4.99 13.485 -6 15 C-8 14 -8 14 -8.8671875 11.73828125 C-9 9 -9 9 -7.3828125 6.54296875 C-6.63773438 5.76566406 -5.89265625 4.98835938 -5.125 4.1875 C-4.38507812 3.39730469 -3.64515625 2.60710937 -2.8828125 1.79296875 C-1 0 -1 0 0 0 Z " fill="#1E1E1E" transform="translate(643,424)"/>
<path d="M0 0 C0.66 0.33 1.32 0.66 2 1 C2.625 4.0625 2.625 4.0625 3 7 C2.22785156 7.22816406 1.45570313 7.45632813 0.66015625 7.69140625 C-2.64566288 9.31761683 -3.15318771 10.59345238 -4.5625 13.9375 C-6.17973019 17.73715156 -7.49513767 19.75481335 -11 22 C-9.23465356 17.15984684 -6.80463275 12.7164873 -4.375 8.1875 C-3.95476563 7.39923828 -3.53453125 6.61097656 -3.1015625 5.79882812 C-2.0699991 3.86464674 -1.03608828 1.93176017 0 0 Z " fill="#E8E9EE" transform="translate(746,564)"/>
<path d="M0 0 C0.33 0 0.66 0 1 0 C1.3125 2.25 1.3125 2.25 1 5 C-0.875 7.3125 -0.875 7.3125 -4 9 C-7.36174475 9.32334339 -10.63449311 9.23525873 -14 9 C-13.34 8.67 -12.68 8.34 -12 8 C-12 7.34 -12 6.68 -12 6 C-8.12315913 4.80712589 -5.08378077 4 -1 4 C-0.67 2.68 -0.34 1.36 0 0 Z " fill="#1F1F20" transform="translate(836,853)"/>
<path d="M0 0 C0.33 0.66 0.66 1.32 1 2 C2.2065625 2.1546875 2.2065625 2.1546875 3.4375 2.3125 C4.283125 2.539375 5.12875 2.76625 6 3 C6.66 4.65 7.32 6.3 8 8 C4.37 8 0.74 8 -3 8 C-2.34 7.01 -1.68 6.02 -1 5 C-1 5.66 -1 6.32 -1 7 C-0.34 7 0.32 7 1 7 C0.34 6.01 -0.32 5.02 -1 4 C-0.625 1.8125 -0.625 1.8125 0 0 Z " fill="#F5F4F7" transform="translate(797,823)"/>
<path d="M0 0 C0.66 0.66 1.32 1.32 2 2 C1.67 2.66 1.34 3.32 1 4 C1.66 4.33 2.32 4.66 3 5 C-0.465 6.485 -0.465 6.485 -4 8 C-5 7 -6 6 -7 5 C-7 4.01 -7 3.02 -7 2 C-4.69 1.34 -2.38 0.68 0 0 Z " fill="#19191B" transform="translate(592,529)"/>
<path d="M0 0 C-6.64583333 5.04166667 -6.64583333 5.04166667 -10.1875 4.625 C-11.115625 4.41875 -12.04375 4.2125 -13 4 C-13 3.01 -13 2.02 -13 1 C-7.84596189 -1.68009982 -5.54675294 -2.57044649 0 0 Z " fill="#1D1D1E" transform="translate(551,443)"/>
<path d="M0 0 C3 -0.3125 3 -0.3125 6 0 C8 2 8 2 9 5 C6.3125 6.25 6.3125 6.25 3 7 C0.125 5.125 0.125 5.125 -2 3 C-1.34 2.01 -0.68 1.02 0 0 Z " fill="#1E1E1E" transform="translate(559,257)"/>
<path d="M0 0 C-1.27296387 3.81889162 -3.21735399 4.98227087 -6.30859375 7.40234375 C-8.14763296 9.13945007 -8.89955213 10.74845603 -10 13 C-12.5 14.625 -12.5 14.625 -15 16 C-15.66 16.66 -16.32 17.32 -17 18 C-17 15 -17 15 -15.65478516 13.2824707 C-15.03909668 12.66976318 -14.4234082 12.05705566 -13.7890625 11.42578125 C-13.12132812 10.75869141 -12.45359375 10.09160156 -11.765625 9.40429688 C-11.05921875 8.71400391 -10.3528125 8.02371094 -9.625 7.3125 C-8.57699219 6.2596582 -8.57699219 6.2596582 -7.5078125 5.18554688 C-2.26683218 0 -2.26683218 0 0 0 Z " fill="#DFE0E2" transform="translate(706,626)"/>
<path d="M0 0 C-0.20496094 0.60328125 -0.40992188 1.2065625 -0.62109375 1.828125 C-0.89050781 2.62734375 -1.15992188 3.4265625 -1.4375 4.25 C-1.70433594 5.03890625 -1.97117187 5.8278125 -2.24609375 6.640625 C-2.91954708 8.74821988 -3.49150595 10.84753973 -4 13 C-5.32 12.67 -6.64 12.34 -8 12 C-7.690625 11.2575 -7.38125 10.515 -7.0625 9.75 C-5.96876427 7.14396429 -5.96876427 7.14396429 -5.5625 4.875 C-4.66813392 1.89377974 -3.20452878 0 0 0 Z " fill="#252526" transform="translate(642,225)"/>
<path d="M0 0 C-0.433125 0.8353125 -0.433125 0.8353125 -0.875 1.6875 C-2.0413253 4.08494645 -3.0339881 6.51596939 -4 9 C-5.65 8.67 -7.3 8.34 -9 8 C-9.33 7.01 -9.66 6.02 -10 5 C-8.71186658 4.16121545 -7.41936744 3.32913217 -6.125 2.5 C-5.40570313 2.0359375 -4.68640625 1.571875 -3.9453125 1.09375 C-2 0 -2 0 0 0 Z " fill="#1D1D1D" transform="translate(378,206)"/>
<path d="M0 0 C0.33 0 0.66 0 1 0 C1 2.64 1 5.28 1 8 C1.66 8 2.32 8 3 8 C3 14.6 3 21.2 3 28 C2.67 28 2.34 28 2 28 C1.93941406 27.00097656 1.87882813 26.00195312 1.81640625 24.97265625 C1.73261719 23.68230469 1.64882812 22.39195312 1.5625 21.0625 C1.48128906 19.77472656 1.40007812 18.48695313 1.31640625 17.16015625 C1.35080812 14.13976043 1.35080812 14.13976043 0 13 C-0.07258946 10.81360547 -0.08373783 8.62499611 -0.0625 6.4375 C-0.05347656 5.23996094 -0.04445312 4.04242188 -0.03515625 2.80859375 C-0.02355469 1.88175781 -0.01195312 0.95492188 0 0 Z " fill="#1F1F21" transform="translate(249,416)"/>
<path d="M0 0 C1.65 0.33 3.3 0.66 5 1 C4.649375 1.61875 4.29875 2.2375 3.9375 2.875 C3.4734375 3.926875 3.4734375 3.926875 3 5 C3.33 5.66 3.66 6.32 4 7 C2.35 7.66 0.7 8.32 -1 9 C-2.1875 6.75 -2.1875 6.75 -3 4 C-1.625 1.6875 -1.625 1.6875 0 0 Z " fill="#1D1D1F" transform="translate(555,433)"/>
<path d="M0 0 C0.99 0.33 1.98 0.66 3 1 C2.566875 2.0209375 2.566875 2.0209375 2.125 3.0625 C0.87402645 6.32893093 -0.07447955 9.62846123 -1 13 C-1.99 12.67 -2.98 12.34 -4 12 C-4 12.66 -4 13.32 -4 14 C-4.66 13.67 -5.32 13.34 -6 13 C-4.02 8.71 -2.04 4.42 0 0 Z " fill="#E5E6E9" transform="translate(683,418)"/>
<path d="M0 0 C0.33 0 0.66 0 1 0 C1.36653013 3.22788775 1.71601907 6.45740362 2.0625 9.6875 C2.16626953 10.59951172 2.27003906 11.51152344 2.37695312 12.45117188 C2.47041016 13.33740234 2.56386719 14.22363281 2.66015625 15.13671875 C2.79369507 16.35427856 2.79369507 16.35427856 2.92993164 17.59643555 C3.00616735 20.21155938 2.6025506 22.46138516 2 25 C1.67 25 1.34 25 1 25 C0.24636948 21.64908229 -0.11979937 18.56890188 -0.09765625 15.13671875 C-0.09443359 14.25048828 -0.09121094 13.36425781 -0.08789062 12.45117188 C-0.07951172 11.53916016 -0.07113281 10.62714844 -0.0625 9.6875 C-0.05798828 8.75615234 -0.05347656 7.82480469 -0.04882812 6.86523438 C-0.03709234 4.57675627 -0.02067363 2.28841192 0 0 Z " fill="#2F2F2F" transform="translate(659,246)"/>
<path d="M0 0 C1.1171875 1.703125 1.1171875 1.703125 2 4 C1.3203125 6.359375 1.3203125 6.359375 0.125 8.75 C-0.45894531 9.94882812 -0.45894531 9.94882812 -1.0546875 11.171875 C-1.36664063 11.77515625 -1.67859375 12.3784375 -2 13 C-2.99 13 -3.98 13 -5 13 C-4.835 12.401875 -4.67 11.80375 -4.5 11.1875 C-3.8885876 8.88655664 -3.8885876 8.88655664 -4 6 C-2.72245446 3.9639118 -1.39300182 1.95890881 0 0 Z " fill="#EAEBEC" transform="translate(422,842)"/>
<path d="M0 0 C2.5625 1.5625 2.5625 1.5625 4 3 C3.34 3 2.68 3 2 3 C2 3.66 2 4.32 2 5 C1.195625 4.690625 0.39125 4.38125 -0.4375 4.0625 C-4.62249087 2.81434483 -8.66306101 2.3662304 -13 2 C-9.22448897 -2.10381633 -4.99144773 -1.23641366 0 0 Z " fill="#303032" transform="translate(489,802)"/>
<path d="M0 0 C1.95582488 2.93373731 3.56224304 5.78216298 5 9 C4.67 9.66 4.34 10.32 4 11 C3.01 11 2.02 11 1 11 C1 10.34 1 9.68 1 9 C0.34 9 -0.32 9 -1 9 C-1 8.01 -1 7.02 -1 6 C-1.66 5.67 -2.32 5.34 -3 5 C-3 4.34 -3 3.68 -3 3 C-2.01 3 -1.02 3 0 3 C0 2.01 0 1.02 0 0 Z " fill="#242424" transform="translate(811,796)"/>
<path d="M0 0 C2.4375 0.8125 2.4375 0.8125 5 2 C5.33 2.99 5.66 3.98 6 5 C2.04 6.98 2.04 6.98 -2 9 C-2 8.34 -2 7.68 -2 7 C-1.34 7 -0.68 7 0 7 C-0.2784375 5.824375 -0.2784375 5.824375 -0.5625 4.625 C-1 2 -1 2 0 0 Z " fill="#1F2020" transform="translate(478,518)"/>
<path d="M0 0 C0.7734375 0.61875 0.7734375 0.61875 1.5625 1.25 C0.3559375 1.62125 0.3559375 1.62125 -0.875 2 C-1.720625 2.4125 -2.56625 2.825 -3.4375 3.25 C-4.08963292 5.27463255 -4.08963292 5.27463255 -4.4375 7.25 C-5.4275 7.58 -6.4175 7.91 -7.4375 8.25 C-8.0975 6.6 -8.7575 4.95 -9.4375 3.25 C-3.0375 -0.93461538 -3.0375 -0.93461538 0 0 Z " fill="#1E1E1E" transform="translate(452.4375,502.75)"/>
<path d="M0 0 C-0.495 0.474375 -0.99 0.94875 -1.5 1.4375 C-3.11542197 2.75923698 -3.11542197 2.75923698 -3 4 C-3.99 4.495 -3.99 4.495 -5 5 C-5 5.66 -5 6.32 -5 7 C-7.91517292 5.92598892 -9.77810176 5.22189824 -12 3 C-7.89542386 0.01485372 -5.02254631 -0.2954439 0 0 Z " fill="#202020" transform="translate(511,497)"/>
<path d="M0 0 C2.6875 0.3125 2.6875 0.3125 5 1 C4.34 2.65 3.68 4.3 3 6 C2.01 6 1.02 6 0 6 C-0.33 7.32 -0.66 8.64 -1 10 C-1.66 7.69 -2.32 5.38 -3 3 C-1.8125 1.4375 -1.8125 1.4375 0 0 Z " fill="#212121" transform="translate(292,784)"/>
<path d="M0 0 C5.49295775 5.07042254 5.49295775 5.07042254 6 9 C6.185625 9.7425 6.37125 10.485 6.5625 11.25 C6.7790625 12.11625 6.7790625 12.11625 7 13 C5.68 13 4.36 13 3 13 C1.68 9.04 0.36 5.08 -1 1 C-0.67 0.67 -0.34 0.34 0 0 Z " fill="#222021" transform="translate(656,483)"/>
<path d="M0 0 C0.33 0 0.66 0 1 0 C1.05406122 1.93719378 1.09282025 3.87481921 1.125 5.8125 C1.14820313 6.89144531 1.17140625 7.97039062 1.1953125 9.08203125 C1 12 1 12 -1 15 C-1.39013716 16.9896995 -1.73202649 18.99019869 -2 21 C-2.99 21.33 -3.98 21.66 -5 22 C-4.70996094 21.00033203 -4.70996094 21.00033203 -4.4140625 19.98046875 C-2.5458986 13.36790841 -1.11457034 6.77921021 0 0 Z " fill="#393939" transform="translate(655,389)"/>
<path d="M0 0 C2.475 0.99 2.475 0.99 5 2 C3.98823563 5.40320742 3.35156418 6.75725331 0.375 8.8125 C-0.40875 9.204375 -1.1925 9.59625 -2 10 C-1.125 2.25 -1.125 2.25 0 0 Z " fill="#F1F0F4" transform="translate(381,308)"/>
<path d="M0 0 C0.66 0 1.32 0 2 0 C2.33 1.65 2.66 3.3 3 5 C3.99 4.67 4.98 4.34 6 4 C6.33 5.65 6.66 7.3 7 9 C2.49197399 7.74194623 -0.4912812 6.09592835 -4 3 C-3.01 2.67 -2.02 2.34 -1 2 C-0.67 1.34 -0.34 0.68 0 0 Z " fill="#202020" transform="translate(627,227)"/>
<path d="M0 0 C1.8125 0.125 1.8125 0.125 4 1 C5.75 4.0625 5.75 4.0625 7 7 C3.125 9 3.125 9 2 9 C2 7.35 2 5.7 2 4 C1.34 3.67 0.68 3.34 0 3 C0 2.01 0 1.02 0 0 Z " fill="#1D1D1F" transform="translate(305,551)"/>
<path d="M0 0 C0.99 0 1.98 0 3 0 C2.44894091 3.9492568 1.61064629 7.34920174 0 11 C-0.99 10.67 -1.98 10.34 -3 10 C-3.26046037 6.87447554 -3.27021697 5.40532546 -1.5 2.75 C-1.005 2.1725 -0.51 1.595 0 1 C0 0.67 0 0.34 0 0 Z " fill="#222224" transform="translate(597,790)"/>
<path d="M0 0 C1.4606285 2.64738916 2 3.89448334 2 7 C-0.58246143 8.90877584 -3.12754491 10.56377246 -6 12 C-4.43358249 7.69235185 -2.31663844 3.93828536 0 0 Z " fill="#EAE9EE" transform="translate(317,311)"/>
<path d="M0 0 C0.66 0 1.32 0 2 0 C2.55808089 1.43120744 3.09596462 2.87030355 3.625 4.3125 C3.92664063 5.11300781 4.22828125 5.91351562 4.5390625 6.73828125 C4.69117188 7.48464844 4.84328125 8.23101563 5 9 C4.01 10.485 4.01 10.485 3 12 C2.01 10.68 1.02 9.36 0 8 C0.99 8 1.98 8 3 8 C2.319375 7.236875 1.63875 6.47375 0.9375 5.6875 C0.298125 4.800625 -0.34125 3.91375 -1 3 C-0.67 2.01 -0.34 1.02 0 0 Z " fill="#202022" transform="translate(817,812)"/>
<path d="M0 0 C1.32 0.66 2.64 1.32 4 2 C4 2.66 4 3.32 4 4 C4.99 4 5.98 4 7 4 C6.67 5.65 6.34 7.3 6 9 C2.535 7.02 2.535 7.02 -1 5 C-0.67 3.35 -0.34 1.7 0 0 Z " fill="#222222" transform="translate(360,657)"/>
<path d="M0 0 C1.2065625 0.0309375 1.2065625 0.0309375 2.4375 0.0625 C3.0975 1.3825 3.7575 2.7025 4.4375 4.0625 C3.4475 5.0525 2.4575 6.0425 1.4375 7.0625 C-0.2125 5.0825 -1.8625 3.1025 -3.5625 1.0625 C-2.5625 0.0625 -2.5625 0.0625 0 0 Z " fill="#242424" transform="translate(651.5625,474.9375)"/>
<path d="M0 0 C0.66 0 1.32 0 2 0 C2.66 2.31 3.32 4.62 4 7 C3.01 7.495 3.01 7.495 2 8 C-0.03144641 7.06553465 -2.03533587 6.06775224 -4 5 C-3.34 4.67 -2.68 4.34 -2 4 C-0.86649466 1.98330173 -0.86649466 1.98330173 0 0 Z " fill="#202020" transform="translate(523,306)"/>
<path d="M0 0 C0.66 0 1.32 0 2 0 C2.6875 1.8125 2.6875 1.8125 3 4 C1.8125 5.8125 1.8125 5.8125 0 7 C-2.1875 6.6875 -2.1875 6.6875 -4 6 C-2.84826645 3.53199953 -1.95216435 1.95216435 0 0 Z " fill="#EBECED" transform="translate(467,807)"/>
<path d="M0 0 C0.66 0.66 1.32 1.32 2 2 C1.9375 4.875 1.9375 4.875 1 8 C-1.5625 10.375 -1.5625 10.375 -4 12 C-2.66666667 8 -1.33333333 4 0 0 Z " fill="#E1E2E6" transform="translate(594,805)"/>
<path d="M0 0 C1.9375 1 1.9375 1 3.1875 4.0625 C3.435 5.031875 3.6825 6.00125 3.9375 7 C0.47824837 5.7508258 -2.20943203 4.32472205 -5.0625 2 C-2.0625 0 -2.0625 0 0 0 Z " fill="#232323" transform="translate(413.0625,616)"/>
<path d="M0 0 C3.00775285 0.81459973 4.11821903 1.4080021 6 3.8125 C3.625 4.4375 3.625 4.4375 1 4.8125 C0.34 4.1525 -0.32 3.4925 -1 2.8125 C-3.57061311 2.16482207 -3.57061311 2.16482207 -6 1.8125 C-3 -0.1875 -3 -0.1875 0 0 Z " fill="#111011" transform="translate(526,274.1875)"/>
<path d="M0 0 C0.66 0.33 1.32 0.66 2 1 C1.38125 1.5775 0.7625 2.155 0.125 2.75 C-1.81347053 4.80249821 -2.90014249 6.43366582 -4 9 C-5.32 7.68 -6.64 6.36 -8 5 C-6.71475739 4.13619741 -5.42157581 3.28419631 -4.125 2.4375 C-3.04605469 1.72400391 -3.04605469 1.72400391 -1.9453125 0.99609375 C-1.30335938 0.66738281 -0.66140625 0.33867187 0 0 Z " fill="#232323" transform="translate(427,248)"/>
<path d="M0 0 C0.99 0.33 1.98 0.66 3 1 C2.25 5.75 2.25 5.75 0 8 C-0.99 7.34 -1.98 6.68 -3 6 C-1.125 1.125 -1.125 1.125 0 0 Z " fill="#232325" transform="translate(780,849)"/>
<path d="M0 0 C0.75 1.75 0.75 1.75 1 4 C-0.6875 6.3125 -0.6875 6.3125 -3 8 C-5.25 7.75 -5.25 7.75 -7 7 C-6.34 6.01 -5.68 5.02 -5 4 C-4.67 3.01 -4.34 2.02 -4 1 C-3.01 1.66 -2.02 2.32 -1 3 C-0.67 2.01 -0.34 1.02 0 0 Z " fill="#2C2C2C" transform="translate(506,798)"/>
<path d="M0 0 C1.5625 1.75 1.5625 1.75 3 4 C2.6875 6.25 2.6875 6.25 2 8 C0.02 7.34 -1.96 6.68 -4 6 C-2.68 4.02 -1.36 2.04 0 0 Z " fill="#1E1E1E" transform="translate(691,589)"/>
<path d="M0 0 C-0.43820891 4.55737263 -0.85041169 7.57653445 -4 11 C-4.70074844 7.846632 -5 5.27275026 -5 2 C-1.125 0 -1.125 0 0 0 Z " fill="#1C1B20" transform="translate(751,551)"/>
<path d="M0 0 C-0.99 1.485 -0.99 1.485 -2 3 C-2 3.99 -2 4.98 -2 6 C-3.65 6 -5.3 6 -7 6 C-6.625 3.0625 -6.625 3.0625 -6 0 C-3.50907189 -1.24546405 -2.58919267 -0.7767578 0 0 Z " fill="#1D1D1D" transform="translate(656,297)"/>
<path d="M0 0 C1.9451 2.91765 2.45276317 4.62537285 3 8 C2.01 8 1.02 8 0 8 C-0.33 8.66 -0.66 9.32 -1 10 C-2.23076923 4.58461538 -2.23076923 4.58461538 -1.0625 1.625 C-0.5365625 0.820625 -0.5365625 0.820625 0 0 Z " fill="#201E1F" transform="translate(805,819)"/>
<path d="M0 0 C0.66 0.33 1.32 0.66 2 1 C1.67 2.32 1.34 3.64 1 5 C-1.375 5.625 -1.375 5.625 -4 6 C-4.66 5.34 -5.32 4.68 -6 4 C-3.94766315 1.7522025 -2.99332739 0.9977758 0 0 Z " fill="#272727" transform="translate(256,816)"/>
<path d="M0 0 C0 0.99 0 1.98 0 3 C-0.99 3 -1.98 3 -3 3 C-3.33 3.99 -3.66 4.98 -4 6 C-6.375 6.625 -6.375 6.625 -9 7 C-9.66 6.34 -10.32 5.68 -11 5 C-9.54462432 4.16151196 -8.08559627 3.32936066 -6.625 2.5 C-5.81289063 2.0359375 -5.00078125 1.571875 -4.1640625 1.09375 C-2 0 -2 0 0 0 Z " fill="#212121" transform="translate(503,544)"/>
<path d="M0 0 C2.05078125 0.03255208 4.1015625 0.06510417 6.15234375 0.09765625 C5.49234375 1.74765625 4.83234375 3.39765625 4.15234375 5.09765625 C1.84234375 4.76765625 -0.46765625 4.43765625 -2.84765625 4.09765625 C-2.84765625 0.15051037 -2.84765625 0.15051037 0 0 Z " fill="#121011" transform="translate(540.84765625,482.90234375)"/>
<path d="M0 0 C4.875 0.875 4.875 0.875 6 2 C6.99 3.485 6.99 3.485 8 5 C7.01 5.99 6.02 6.98 5 8 C2.525 4.04 2.525 4.04 0 0 Z " fill="#211F20" transform="translate(639,308)"/>
<path d="M0 0 C0.99 0.33 1.98 0.66 3 1 C2.1875 2.9375 2.1875 2.9375 1 5 C0.01 5.33 -0.98 5.66 -2 6 C-2.33 6.66 -2.66 7.32 -3 8 C-3.66 7.34 -4.32 6.68 -5 6 C-3.35 4.02 -1.7 2.04 0 0 Z " fill="#E3E4E6" transform="translate(763,286)"/>
<path d="M0 0 C0.515625 0.2475 1.03125 0.495 1.5625 0.75 C-1.10416667 2.75 -3.77083333 4.75 -6.4375 6.75 C-7.4275 5.76 -8.4175 4.77 -9.4375 3.75 C-3.0375 -0.31153846 -3.0375 -0.31153846 0 0 Z " fill="#222222" transform="translate(390.4375,199.25)"/>
<path d="M0 0 C2.125 0.9375 2.125 0.9375 4 2 C4 2.66 4 3.32 4 4 C4.66 4 5.32 4 6 4 C5.34 5.65 4.68 7.3 4 9 C2 6.33333333 0 3.66666667 -2 1 C-1.34 0.67 -0.68 0.34 0 0 Z " fill="#1E1E1E" transform="translate(473,201)"/>
<path d="M0 0 C0 3 0 3 -2.4375 5.5 C-3.283125 6.325 -4.12875 7.15 -5 8 C-5.33 8.99 -5.66 9.98 -6 11 C-6.99 10.67 -7.98 10.34 -9 10 C-9 9.01 -9 8.02 -9 7 C-7.04109119 5.60699818 -5.0360882 4.27754554 -3 3 C-1.20605554 1.37648891 -1.20605554 1.37648891 0 0 Z " fill="#E5E6E7" transform="translate(261,852)"/>
<path d="M0 0 C1.74627478 2.61941217 2.38722388 4.03824877 3 7 C1.35 7.66 -0.3 8.32 -2 9 C-2 6.69 -2 4.38 -2 2 C-1.34 2 -0.68 2 0 2 C0 1.34 0 0.68 0 0 Z " fill="#222224" transform="translate(550,798)"/>
<path d="M0 0 C5.875 1.875 5.875 1.875 7 3 C7.04063832 4.66617115 7.042721 6.33388095 7 8 C5.68 8 4.36 8 3 8 C4 6 4 6 5 4 C3.68 4 2.36 4 1 4 C0.67 2.68 0.34 1.36 0 0 Z " fill="#1E1D1F" transform="translate(363,623)"/>
<path d="M0 0 C0.99 0.33 1.98 0.66 3 1 C1.41641358 4.16717283 0.54736301 5.73268318 -2.6875 7.3125 C-3.450625 7.539375 -4.21375 7.76625 -5 8 C-5 7.34 -5 6.68 -5 6 C-4.34 6 -3.68 6 -3 6 C-3 5.34 -3 4.68 -3 4 C-3.66 3.67 -4.32 3.34 -5 3 C-2.6875 1.4375 -2.6875 1.4375 0 0 Z " fill="#1E2120" transform="translate(629,585)"/>
<path d="M0 0 C0.99 0.66 1.98 1.32 3 2 C2.01 3.32 1.02 4.64 0 6 C-1.32 5.67 -2.64 5.34 -4 5 C-4 4.01 -4 3.02 -4 2 C-2.68 1.34 -1.36 0.68 0 0 Z " fill="#1F1F1F" transform="translate(430,583)"/>
<path d="M0 0 C0.99 0.33 1.98 0.66 3 1 C3.33 1.99 3.66 2.98 4 4 C1 6 1 6 -1.1875 5.625 C-1.785625 5.41875 -2.38375 5.2125 -3 5 C-2.625 3.0625 -2.625 3.0625 -2 1 C-1.34 0.67 -0.68 0.34 0 0 Z " fill="#1F1F1F" transform="translate(579,577)"/>
<path d="M0 0 C1.98128482 3.26911995 2.17354387 5.41461582 1.75 9.1875 C1.66234375 10.06792969 1.5746875 10.94835937 1.484375 11.85546875 C1.32453125 12.56316406 1.1646875 13.27085937 1 14 C0.01 14.495 0.01 14.495 -1 15 C-1.09038099 9.84828377 -0.84681133 5.08086796 0 0 Z " fill="#2F2F2F" transform="translate(251,396)"/>
<path d="M0 0 C0.66 0 1.32 0 2 0 C2.8125 2.1875 2.8125 2.1875 3 5 C0.84381063 7.56411708 -0.99099627 9.49549813 -4 11 C-3.52269162 9.5410574 -3.04308958 8.08286504 -2.5625 6.625 C-2.29566406 5.81289063 -2.02882813 5.00078125 -1.75390625 4.1640625 C-1 2 -1 2 0 0 Z " fill="#E5E6EA" transform="translate(306,331)"/>
<path d="M0 0 C3.15330554 0.60694155 5.18888867 1.6416665 7.75 3.5625 C8.67039062 4.24505859 8.67039062 4.24505859 9.609375 4.94140625 C10.29773438 5.46541016 10.29773438 5.46541016 11 6 C10.67 6.66 10.34 7.32 10 8 C6.37 6.02 2.74 4.04 -1 2 C-0.67 1.34 -0.34 0.68 0 0 Z " fill="#252525" transform="translate(615,290)"/>
<path d="M0 0 C1.98 0.66 3.96 1.32 6 2 C6 2.99 6 3.98 6 5 C5.34 5.66 4.68 6.32 4 7 C2 5.75 2 5.75 0 4 C0 2.68 0 1.36 0 0 Z " fill="#202020" transform="translate(489,219)"/>
<path d="M0 0 C1.50433594 0.01353516 1.50433594 0.01353516 3.0390625 0.02734375 C3.80992187 0.03894531 4.58078125 0.05054688 5.375 0.0625 C4.385 0.5575 4.385 0.5575 3.375 1.0625 C3.045 1.7225 2.715 2.3825 2.375 3.0625 C1.7975 2.85625 1.22 2.65 0.625 2.4375 C-2.16379535 1.97270077 -3.18969167 2.76366889 -5.625 4.0625 C-6.285 3.7325 -6.945 3.4025 -7.625 3.0625 C-7.625 2.4025 -7.625 1.7425 -7.625 1.0625 C-4.98041621 -0.25979189 -2.94738699 -0.03427194 0 0 Z " fill="#101011" transform="translate(589.625,783.9375)"/>
<path d="M0 0 C-0.99 0.99 -1.98 1.98 -3 3 C-4.98 2.34 -6.96 1.68 -9 1 C-9 0.34 -9 -0.32 -9 -1 C-5.22102349 -2.0497157 -3.35080929 -2.10976881 0 0 Z " fill="#232323" transform="translate(497,660)"/>
<path d="M0 0 C-0.6875 1.9375 -0.6875 1.9375 -2 4 C-4.625 4.75 -4.625 4.75 -7 5 C-7 3.35 -7 1.7 -7 0 C-3.98968256 -0.93423645 -3.13349732 -1.04449911 0 0 Z " fill="#1E1F21" transform="translate(688,641)"/>
<path d="M0 0 C0.66 0.33 1.32 0.66 2 1 C1.34 1.66 0.68 2.32 0 3 C0 3.99 0 4.98 0 6 C-0.99 6.33 -1.98 6.66 -3 7 C-3.33 6.34 -3.66 5.68 -4 5 C-5.65 5.33 -7.3 5.66 -9 6 C-6.12050853 3.76039553 -3.23257974 1.70135776 0 0 Z " fill="#E2E6E7" transform="translate(587,537)"/>
<path d="M0 0 C1.65 0.33 3.3 0.66 5 1 C5.33 2.32 5.66 3.64 6 5 C5.01 5.495 5.01 5.495 4 6 C1.96855359 5.06553465 -0.03533587 4.06775224 -2 3 C-1.34 2.67 -0.68 2.34 0 2 C0 1.34 0 0.68 0 0 Z " fill="#272727" transform="translate(471,482)"/>
<path d="M0 0 C1.134375 0.020625 2.26875 0.04125 3.4375 0.0625 C3.4375 1.7125 3.4375 3.3625 3.4375 5.0625 C-2.3125 3.3125 -2.3125 3.3125 -4.5625 1.0625 C-3.5625 0.0625 -3.5625 0.0625 0 0 Z " fill="#292C2C" transform="translate(622.5625,362.9375)"/>
<path d="M0 0 C1.98 0.99 3.96 1.98 6 3 C5.67 3.66 5.34 4.32 5 5 C2.51587793 5.82804069 0.64779693 6 -2 6 C-1.34 4.02 -0.68 2.04 0 0 Z " fill="#1F1F1F" transform="translate(352,299)"/>
<path d="M0 0 C-1.0975223 2.99324263 -1.67682892 3.84610901 -4.625 5.25 C-5.40875 5.4975 -6.1925 5.745 -7 6 C-7.33 5.34 -7.66 4.68 -8 4 C-7.34 4 -6.68 4 -6 4 C-6 2.68 -6 1.36 -6 0 C-3.50907189 -1.24546405 -2.58919267 -0.7767578 0 0 Z " fill="#1D1D1E" transform="translate(421,218)"/>
<path d="M0 0 C0.33 0 0.66 0 1 0 C1.05395478 1.62463842 1.09277195 3.24978541 1.125 4.875 C1.14820313 5.77992188 1.17140625 6.68484375 1.1953125 7.6171875 C1 10 1 10 -1 12 C-2.1875 10.5 -2.1875 10.5 -3 8 C-2.27101296 5.21175762 -1.1843275 2.62334908 0 0 Z " fill="#212121" transform="translate(571,808)"/>
<path d="M0 0 C3.465 1.485 3.465 1.485 7 3 C7 3.66 7 4.32 7 5 C3.80097361 5.08886184 1.07322544 4.91058531 -2 4 C-1.34 2.68 -0.68 1.36 0 0 Z " fill="#1F1F1F" transform="translate(392,569)"/>
<path d="M0 0 C0.99 0 1.98 0 3 0 C3.33 1.65 3.66 3.3 4 5 C3.34 5 2.68 5 2 5 C1.34 5.66 0.68 6.32 0 7 C-0.99 6.67 -1.98 6.34 -3 6 C-2.01 4.02 -1.02 2.04 0 0 Z " fill="#202020" transform="translate(282,304)"/>
<path d="M0 0 C0.33 0.99 0.66 1.98 1 3 C0.2884375 3.61875 0.2884375 3.61875 -0.4375 4.25 C-2.14345311 5.88384327 -2.14345311 5.88384327 -2.5 8.0625 C-3 10 -3 10 -6 12 C-6.33 11.01 -6.66 10.02 -7 9 C-5.56640625 6.73828125 -5.56640625 6.73828125 -3.5625 4.3125 C-2.90378906 3.50425781 -2.24507813 2.69601562 -1.56640625 1.86328125 C-1.04949219 1.24839844 -0.53257812 0.63351562 0 0 Z " fill="#E2E3E8" transform="translate(336,284)"/>
<path d="M0 0 C0.99 0 1.98 0 3 0 C3.625 1.8125 3.625 1.8125 4 4 C3.01 5.485 3.01 5.485 2 7 C1.01 6.67 0.02 6.34 -1 6 C-0.67 4.02 -0.34 2.04 0 0 Z " fill="#EDEEF0" transform="translate(426,832)"/>
<path d="M0 0 C0.66 0.33 1.32 0.66 2 1 C1 3 0 5 -1 7 C-4.0625 7.625 -4.0625 7.625 -7 8 C-6.02133662 6.85373678 -5.04205413 5.70800212 -4.0625 4.5625 C-3.51722656 3.92441406 -2.97195313 3.28632812 -2.41015625 2.62890625 C-1.63204305 1.73008851 -0.84063472 0.84063472 0 0 Z " fill="#272727" transform="translate(670,612)"/>
<path d="M0 0 C0.99 0.33 1.98 0.66 3 1 C2.01 3.31 1.02 5.62 0 8 C-0.33 7.34 -0.66 6.68 -1 6 C-1.66 5.67 -2.32 5.34 -3 5 C-2.625 3.0625 -2.625 3.0625 -2 1 C-1.34 0.67 -0.68 0.34 0 0 Z " fill="#202224" transform="translate(740,570)"/>
<path d="M0 0 C1.98362069 2.91708924 1.9876191 4.12380904 1.625 7.75 C1.41875 8.8225 1.2125 9.895 1 11 C0.34 11 -0.32 11 -1 11 C-1.33 11.66 -1.66 12.32 -2 13 C-1.48041715 8.62065881 -0.94324258 4.31196609 0 0 Z " fill="#272727" transform="translate(738,481)"/>
<path d="M0 0 C3.96 1.98 3.96 1.98 8 4 C5 6 5 6 2.8125 5.625 C2.214375 5.41875 1.61625 5.2125 1 5 C0.67 3.35 0.34 1.7 0 0 Z " fill="#201E1F" transform="translate(390,272)"/>
<path d="M0 0 C1.32 0.33 2.64 0.66 4 1 C4.68707555 3.49064888 5 5.37886292 5 8 C2.5 6.25 2.5 6.25 0 4 C0 2.68 0 1.36 0 0 Z " fill="#1F1F1F" transform="translate(729,233)"/>
<path d="M0 0 C0.99 0.33 1.98 0.66 3 1 C3 2.65 3 4.3 3 6 C1.68 6.33 0.36 6.66 -1 7 C-1.66 5.68 -2.32 4.36 -3 3 C-2.01 2.34 -1.02 1.68 0 1 C0 0.67 0 0.34 0 0 Z " fill="#222222" transform="translate(668,847)"/>
<path d="M0 0 C0.66 0.66 1.32 1.32 2 2 C1.34 3.98 0.68 5.96 0 8 C-0.66 8 -1.32 8 -2 8 C-2.33 6.35 -2.66 4.7 -3 3 C-2.01 2.67 -1.02 2.34 0 2 C0 1.34 0 0.68 0 0 Z " fill="#1F1F21" transform="translate(500,848)"/>
<path d="M0 0 C0.33 0.66 0.66 1.32 1 2 C1.99 1.67 2.98 1.34 4 1 C4.66 1.66 5.32 2.32 6 3 C0.25 7 0.25 7 -2 7 C-1.34 4.69 -0.68 2.38 0 0 Z " fill="#222222" transform="translate(785,797)"/>
<path d="M0 0 C2.88575819 0.39803561 3.82189513 0.79009069 5.75 3.0625 C6.1625 3.701875 6.575 4.34125 7 5 C6.34 5.66 5.68 6.32 5 7 C4.01 6.67 3.02 6.34 2 6 C2 5.34 2 4.68 2 4 C1.36525925 2.65117592 0.70151152 1.3153341 0 0 Z " fill="#282728" transform="translate(410,791)"/>
<path d="M0 0 C2.125 0.9375 2.125 0.9375 4 2 C2.66666667 3.33333333 1.33333333 4.66666667 0 6 C0 5.34 0 4.68 0 4 C-1.32 4.33 -2.64 4.66 -4 5 C-4 4.34 -4 3.68 -4 3 C-3.34 3 -2.68 3 -2 3 C-2 2.34 -2 1.68 -2 1 C-1.34 0.67 -0.68 0.34 0 0 Z " fill="#1D1E20" transform="translate(662,657)"/>
<path d="M0 0 C1.98 0.66 3.96 1.32 6 2 C6 2.66 6 3.32 6 4 C4.25 4.6875 4.25 4.6875 2 5 C-0.25 3.5625 -0.25 3.5625 -2 2 C-1.34 1.34 -0.68 0.68 0 0 Z " fill="#262626" transform="translate(383,602)"/>
<path d="M0 0 C0.99 0.99 1.98 1.98 3 3 C-2.75 6 -2.75 6 -5 6 C-3.63016497 2.83884224 -3.0109362 2.0072908 0 0 Z " fill="#EEEEEE" transform="translate(603,561)"/>
<path d="M0 0 C1.8125 1.25 1.8125 1.25 2.8125 3.25 C-0.1575 3.25 -3.1275 3.25 -6.1875 3.25 C-6.1875 2.59 -6.1875 1.93 -6.1875 1.25 C-2.76721014 -0.94875776 -2.76721014 -0.94875776 0 0 Z " fill="#1E1E1E" transform="translate(628.1875,552.75)"/>
<path d="M0 0 C0.33 0 0.66 0 1 0 C1.24915939 1.76813112 1.47366632 3.53974982 1.6875 5.3125 C1.81511719 6.29863281 1.94273437 7.28476562 2.07421875 8.30078125 C2 11 2 11 0.51953125 12.85546875 C0.01808594 13.23316406 -0.48335937 13.61085938 -1 14 C-1.08333357 9.1666528 -0.95261487 4.76307437 0 0 Z " fill="#2D2D2F" transform="translate(741,456)"/>
<path d="M0 0 C1.125 1.5625 1.125 1.5625 2 4 C1.125 7.75 1.125 7.75 0 11 C-0.66 11 -1.32 11 -2 11 C-1.125 3.375 -1.125 3.375 0 0 Z " fill="#2F2F2F" transform="translate(259,360)"/>
<path d="M0 0 C1.4540625 0.61875 1.4540625 0.61875 2.9375 1.25 C3.2675 2.24 3.5975 3.23 3.9375 4.25 C0.5625 3.9375 0.5625 3.9375 -3.0625 3.25 C-3.7225 2.26 -4.3825 1.27 -5.0625 0.25 C-3.0625 -0.75 -3.0625 -0.75 0 0 Z " fill="#222222" transform="translate(740.0625,337.75)"/>
<path d="M0 0 C0.33 0.66 0.66 1.32 1 2 C0.22265625 3.7265625 0.22265625 3.7265625 -0.9375 5.625 C-1.618125 6.73875 -2.29875 7.8525 -3 9 C-3.66 8.67 -4.32 8.34 -5 8 C-5 7.01 -5 6.02 -5 5 C-4.34 5 -3.68 5 -3 5 C-3 4.01 -3 3.02 -3 2 C-2.01 1.34 -1.02 0.68 0 0 Z " fill="#202125" transform="translate(766,278)"/>
<path d="M0 0 C0.66 0 1.32 0 2 0 C1.34 2.31 0.68 4.62 0 7 C-0.99 7 -1.98 7 -3 7 C-3 5.02 -3 3.04 -3 1 C-2.01 1.495 -2.01 1.495 -1 2 C-0.67 1.34 -0.34 0.68 0 0 Z " fill="#1C1D1F" transform="translate(356,257)"/>
<path d="M0 0 C1.32 0.33 2.64 0.66 4 1 C3.34 2.65 2.68 4.3 2 6 C0.68 5.67 -0.64 5.34 -2 5 C-2 4.01 -2 3.02 -2 2 C-1.34 2 -0.68 2 0 2 C0 1.34 0 0.68 0 0 Z " fill="#101012" transform="translate(550,217)"/>
<path d="M0 0 C0.99 0 1.98 0 3 0 C3 2.64 3 5.28 3 8 C0.03 7.505 0.03 7.505 -3 7 C-2.34 6.01 -1.68 5.02 -1 4 C-0.34 4 0.32 4 1 4 C1.33 3.01 1.66 2.02 2 1 C1.34 0.67 0.68 0.34 0 0 Z " fill="#DFDFE0" transform="translate(705,834)"/>
<path d="M0 0 C2.15377564 2.62198774 3.40072174 4.64404172 4 8 C3.01 8.495 3.01 8.495 2 9 C1.67 7.68 1.34 6.36 1 5 C0.34 5 -0.32 5 -1 5 C-0.67 3.35 -0.34 1.7 0 0 Z " fill="#28282A" transform="translate(828,835)"/>
<path d="M0 0 C2.125 1.875 2.125 1.875 4 4 C4 4.66 4 5.32 4 6 C0.54074837 4.7508258 -2.14693203 3.32472205 -5 1 C-2 0 -2 0 0 0 Z " fill="#212121" transform="translate(432,627)"/>
<path d="M0 0 C0.33 0.66 0.66 1.32 1 2 C-1.2010905 4.53125407 -2.72053118 5.3850996 -6 6 C-6.99 6.33 -7.98 6.66 -9 7 C-8 4 -8 4 -6.15234375 2.83203125 C-5.42144531 2.49558594 -4.69054687 2.15914062 -3.9375 1.8125 C-3.20402344 1.46832031 -2.47054687 1.12414062 -1.71484375 0.76953125 C-1.14894531 0.51558594 -0.58304688 0.26164063 0 0 Z " fill="#292929" transform="translate(570,582)"/>
<path d="M0 0 C-0.9977758 2.99332739 -1.7522025 3.94766315 -4 6 C-6 3 -6 3 -6 0 C-3 -1 -3 -1 0 0 Z " fill="#1F1F1F" transform="translate(358,579)"/>
<path d="M0 0 C0.33 0 0.66 0 1 0 C1.33 3.96 1.66 7.92 2 12 C1.34 12 0.68 12 0 12 C-0.76173392 7.6835078 -1.16063604 4.25566547 0 0 Z " fill="#2E2E30" transform="translate(772,400)"/>
<path d="M0 0 C2.475 0.99 2.475 0.99 5 2 C4.67 3.32 4.34 4.64 4 6 C-0.875 4.25 -0.875 4.25 -2 2 C-1.34 2 -0.68 2 0 2 C0 1.34 0 0.68 0 0 Z " fill="#1C1C1E" transform="translate(562,362)"/>
<path d="M0 0 C2.35953094 2.35953094 2.49141413 3.77895617 3 7 C1 6 -1 5 -3 4 C-3 3.01 -3 2.02 -3 1 C-2.01 0.67 -1.02 0.34 0 0 Z " fill="#1D1D1D" transform="translate(753,331)"/>
<path d="M0 0 C0.99 0.66 1.98 1.32 3 2 C2.34 2.66 1.68 3.32 1 4 C1.33 4.66 1.66 5.32 2 6 C-0.31 5.67 -2.62 5.34 -5 5 C-4.67 4.01 -4.34 3.02 -4 2 C-2.68 2 -1.36 2 0 2 C0 1.34 0 0.68 0 0 Z " fill="#1F1F1F" transform="translate(549,249)"/>
<path d="M0 0 C1.11375 0.556875 1.11375 0.556875 2.25 1.125 C1.26 2.115 0.27 3.105 -0.75 4.125 C-2.73 3.135 -4.71 2.145 -6.75 1.125 C-4.02098495 -0.69434337 -3.21400584 -1.02263822 0 0 Z " fill="#262626" transform="translate(533.75,243.875)"/>
<path d="M0 0 C0 2.31 0 4.62 0 7 C-1.32 6.67 -2.64 6.34 -4 6 C-3.625 3.5625 -3.625 3.5625 -3 1 C-1 0 -1 0 0 0 Z " fill="#272729" transform="translate(342,849)"/>
<path d="M0 0 C0.66 0 1.32 0 2 0 C2.33 1.98 2.66 3.96 3 6 C2.34 5.67 1.68 5.34 1 5 C0.34 5.66 -0.32 6.32 -1 7 C-1.33 5.35 -1.66 3.7 -2 2 C-1.34 2 -0.68 2 0 2 C0 1.34 0 0.68 0 0 Z " fill="#111113" transform="translate(444,832)"/>
<path d="M0 0 C1.98 0 3.96 0 6 0 C6 0.99 6 1.98 6 3 C4.02 3.33 2.04 3.66 0 4 C0 2.68 0 1.36 0 0 Z " fill="#0E0E0E" transform="translate(476,675)"/>
<path d="M0 0 C3 0 3 0 5 1 C4.625 3.4375 4.625 3.4375 4 6 C3.01 6.495 3.01 6.495 2 7 C0.5393715 4.35261084 0 3.10551666 0 0 Z " fill="#1F2022" transform="translate(673,427)"/>
<path d="M0 0 C3 2 3 2 3.6875 4.625 C3.790625 5.40875 3.89375 6.1925 4 7 C3.01 7 2.02 7 1 7 C0.34 5.02 -0.32 3.04 -1 1 C-0.67 0.67 -0.34 0.34 0 0 Z " fill="#1D1D1D" transform="translate(682,321)"/>
<path d="M0 0 C0.66 0.66 1.32 1.32 2 2 C1.01 4.31 0.02 6.62 -1 9 C-1.66 8.67 -2.32 8.34 -3 8 C-3 6.35 -3 4.7 -3 3 C-2.01 2.67 -1.02 2.34 0 2 C0 1.34 0 0.68 0 0 Z " fill="#27282B" transform="translate(693,242)"/>
<path d="M0 0 C0.33 0.66 0.66 1.32 1 2 C0.67 2.66 0.34 3.32 0 4 C-0.99 4 -1.98 4 -3 4 C-3.33 4.99 -3.66 5.98 -4 7 C-4.99 7 -5.98 7 -7 7 C-2.25 1.125 -2.25 1.125 0 0 Z " fill="#242424" transform="translate(335,237)"/>
<path d="M0 0 C0.66 0.33 1.32 0.66 2 1 C2 1.66 2 2.32 2 3 C-4.625 4.25 -4.625 4.25 -8 2 C-6.8553125 2.061875 -6.8553125 2.061875 -5.6875 2.125 C-2.77281584 2.22080824 -2.77281584 2.22080824 0 0 Z " fill="#131313" transform="translate(489,857)"/>
<path d="M0 0 C1.65 0.33 3.3 0.66 5 1 C4.0409375 1.5878125 4.0409375 1.5878125 3.0625 2.1875 C0.56221181 4.38472296 0.35049575 5.75791433 0 9 C-0.33 9 -0.66 9 -1 9 C-1.125 2.25 -1.125 2.25 0 0 Z " fill="#28282A" transform="translate(475,819)"/>
<path d="M0 0 C0.66 0.33 1.32 0.66 2 1 C1.360625 1.78375 0.72125 2.5675 0.0625 3.375 C-1.98142313 5.79539281 -1.98142313 5.79539281 -3 8 C-3.99 7.67 -4.98 7.34 -6 7 C-4.02 4.69 -2.04 2.38 0 0 Z " fill="#131313" transform="translate(674,789)"/>
<path d="M0 0 C1.875 1.25 1.875 1.25 2.875 4.25 C1.92625 3.899375 0.9775 3.54875 0 3.1875 C-2.99560172 1.89973223 -2.99560172 1.89973223 -5.125 3.25 C-5.125 2.26 -5.125 1.27 -5.125 0.25 C-2.125 -0.75 -2.125 -0.75 0 0 Z " fill="#282828" transform="translate(638.125,784.75)"/>
<path d="M0 0 C2.97 0.495 2.97 0.495 6 1 C6.33 2.32 6.66 3.64 7 5 C2.25 3.125 2.25 3.125 0 2 C0 1.34 0 0.68 0 0 Z " fill="#242424" transform="translate(409,545)"/>
<path d="M0 0 C0.66 0.66 1.32 1.32 2 2 C1.625 5.125 1.625 5.125 1 8 C0.01 7.01 -0.98 6.02 -2 5 C-1.34 3.35 -0.68 1.7 0 0 Z " fill="#1F1F21" transform="translate(292,512)"/>
<path d="M0 0 C2.31 0.33 4.62 0.66 7 1 C7.33 1.99 7.66 2.98 8 4 C7.01 4.33 6.02 4.66 5 5 C4.01 4.34 3.02 3.68 2 3 C1.34 2.67 0.68 2.34 0 2 C0 1.34 0 0.68 0 0 Z " fill="#1D1E20" transform="translate(584,418)"/>
<path d="M0 0 C0.66 0.33 1.32 0.66 2 1 C0.515 3.475 0.515 3.475 -1 6 C-0.34 6.33 0.32 6.66 1 7 C-0.32 6.67 -1.64 6.34 -3 6 C-3.33 4.68 -3.66 3.36 -4 2 C-2.125 0.9375 -2.125 0.9375 0 0 Z " fill="#202020" transform="translate(384,271)"/>
<path d="M0 0 C0.99 0.33 1.98 0.66 3 1 C2.25 2.9375 2.25 2.9375 1 5 C-1.125 5.75 -1.125 5.75 -3 6 C-3 4.68 -3 3.36 -3 2 C-2.01 1.34 -1.02 0.68 0 0 Z " fill="#1A1819" transform="translate(386,271)"/>
<path d="M0 0 C0.99 0 1.98 0 3 0 C3.33 2.97 3.66 5.94 4 9 C2.01388388 7.01388388 1.08545288 5.55856751 0 3 C0 2.01 0 1.02 0 0 Z " fill="#292728" transform="translate(735,241)"/>
<path d="M0 0 C2.97 0.495 2.97 0.495 6 1 C5.34 2.32 4.68 3.64 4 5 C1.525 4.01 1.525 4.01 -1 3 C-0.67 2.01 -0.34 1.02 0 0 Z " fill="#262626" transform="translate(497,225)"/>
<path d="M0 0 C1.04675443 4.18701771 0.85351996 5.29296007 -1 9 C-1.99 8.67 -2.98 8.34 -4 8 C-2.68 5.36 -1.36 2.72 0 0 Z " fill="#E6E6E9" transform="translate(645,219)"/>
<path d="M0 0 C0.66 0.33 1.32 0.66 2 1 C2.33 2.32 2.66 3.64 3 5 C0.36 4.34 -2.28 3.68 -5 3 C-3 1 -3 1 0 0 Z " fill="#272727" transform="translate(590,211)"/>
<path d="M0 0 C0.99 0.33 1.98 0.66 3 1 C2.67 1.99 2.34 2.98 2 4 C-0.5625 5.1875 -0.5625 5.1875 -3 6 C-3.33 5.01 -3.66 4.02 -4 3 C-3.01 3 -2.02 3 -1 3 C-0.67 2.01 -0.34 1.02 0 0 Z " fill="#EBEBEB" transform="translate(691,201)"/>
<path d="M0 0 C1.5 1.25 1.5 1.25 3 3 C3 4.32 3 5.64 3 7 C0.525 6.01 0.525 6.01 -2 5 C-1.34 3.35 -0.68 1.7 0 0 Z " fill="#ECECED" transform="translate(443,841)"/>
<path d="M0 0 C0.66 0.33 1.32 0.66 2 1 C-0.06756277 3.7972908 -1.14440371 4.02692273 -4.6875 4.6875 C-5.780625 4.790625 -6.87375 4.89375 -8 5 C-5.45378681 2.99940392 -3.01962385 1.20784954 0 0 Z " fill="#DEDFE0" transform="translate(582,615)"/>
<path d="M0 0 C0.99 0.99 1.98 1.98 3 3 C-1.43076923 5.09230769 -1.43076923 5.09230769 -4.3125 4.625 C-4.869375 4.41875 -5.42625 4.2125 -6 4 C-3 2 -3 2 -1 2 C-0.67 1.34 -0.34 0.68 0 0 Z " fill="#202123" transform="translate(616,593)"/>
<path d="M0 0 C1.98 0.495 1.98 0.495 4 1 C3.34 2.65 2.68 4.3 2 6 C1.01 5.34 0.02 4.68 -1 4 C-0.67 2.68 -0.34 1.36 0 0 Z " fill="#201F24" transform="translate(730,585)"/>
<path d="M0 0 C0.66 0 1.32 0 2 0 C2 1.65 2 3.3 2 5 C1.34 5 0.68 5 0 5 C-0.66 5.66 -1.32 6.32 -2 7 C-2.33 6.01 -2.66 5.02 -3 4 C-1.6875 1.8125 -1.6875 1.8125 0 0 Z " fill="#E7E8EB" transform="translate(673,560)"/>
<path d="M0 0 C2.08954032 4.17908064 2.16552619 4.80410573 1 9 C0.01 9 -0.98 9 -2 9 C-1.34 6.03 -0.68 3.06 0 0 Z " fill="#363636" transform="translate(732,506)"/>
<path d="M0 0 C-0.625 1.9375 -0.625 1.9375 -2 4 C-5.125 4.75 -5.125 4.75 -8 5 C-3.16129032 0 -3.16129032 0 0 0 Z " fill="#131313" transform="translate(548,407)"/>
<path d="M0 0 C0.99 0.33 1.98 0.66 3 1 C1.95125002 3.62187494 1.35068687 4.79371361 -1.125 6.25 C-1.74375 6.4975 -2.3625 6.745 -3 7 C-2.01 4.69 -1.02 2.38 0 0 Z " fill="#0E1213" transform="translate(619,400)"/>
<path d="M0 0 C0.99 0.33 1.98 0.66 3 1 C3 2.32 3 3.64 3 5 C2.34 5 1.68 5 1 5 C0.67 5.99 0.34 6.98 0 8 C-0.38063221 5.6739143 -0.71269945 3.33944736 -1 1 C-0.67 0.67 -0.34 0.34 0 0 Z " fill="#242426" transform="translate(730,358)"/>
<path d="M0 0 C1.2065625 0.2475 1.2065625 0.2475 2.4375 0.5 C4.97658116 1.26597109 4.97658116 1.26597109 7 0 C6.34 1.32 5.68 2.64 5 4 C2 4 2 4 0.3125 2.5 C-0.120625 2.005 -0.55375 1.51 -1 1 C-0.67 0.67 -0.34 0.34 0 0 Z " fill="#1F1F1F" transform="translate(681,299)"/>
<path d="M0 0 C0.66 0.33 1.32 0.66 2 1 C1.39816251 3.02045442 0.72693904 5.02111039 0 7 C-0.99 7.495 -0.99 7.495 -2 8 C-2.6875 6.25 -2.6875 6.25 -3 4 C-1.5625 1.75 -1.5625 1.75 0 0 Z " fill="#1E1E1E" transform="translate(292,288)"/>
<path d="M0 0 C0 3.13751221 -0.35179805 4.39757586 -2 7 C-2.99 7.33 -3.98 7.66 -5 8 C-4.45773019 4.20411134 -2.79872437 2.52788007 0 0 Z " fill="#E2E3E6" transform="translate(347,272)"/>
<path d="M0 0 C0 3 0 3 -1 5 C-0.34 5.33 0.32 5.66 1 6 C-0.32 6 -1.64 6 -3 6 C-3 4.68 -3 3.36 -3 2 C-2.01 1.34 -1.02 0.68 0 0 Z " fill="#1E1E1E" transform="translate(685,208)"/>
<path d="M0 0 C1.32 0.99 2.64 1.98 4 3 C2.02 3.99 0.04 4.98 -2 6 C-2.66 5.34 -3.32 4.68 -4 4 C-2.68 2.68 -1.36 1.36 0 0 Z " fill="#ECECEE" transform="translate(572,857)"/>
<path d="M0 0 C1.10102197 3.30306592 0.95067299 4.71585695 0 8 C-0.99 8.495 -0.99 8.495 -2 9 C-2.25 3.375 -2.25 3.375 0 0 Z " fill="#282828" transform="translate(666,840)"/>
<path d="M0 0 C0.33 0 0.66 0 1 0 C0.125 6.75 0.125 6.75 -1 9 C-1.66 9 -2.32 9 -3 9 C-2.01 6.03 -1.02 3.06 0 0 Z " fill="#262626" transform="translate(579,789)"/>
<path d="M0 0 C1.32 0.66 2.64 1.32 4 2 C2.68 2 1.36 2 0 2 C0 2.66 0 3.32 0 4 C0.66 4.33 1.32 4.66 2 5 C0.68 5.33 -0.64 5.66 -2 6 C-2.33 5.01 -2.66 4.02 -3 3 C-2.01 2.01 -1.02 1.02 0 0 Z " fill="#201E1F" transform="translate(246,785)"/>
<path d="M0 0 C-0.99 0.495 -0.99 0.495 -2 1 C-2.33 1.99 -2.66 2.98 -3 4 C-3.99 4 -4.98 4 -6 4 C-6.33 3.01 -6.66 2.02 -7 1 C-4.53721199 -0.231394 -2.7204945 -0.07159196 0 0 Z " fill="#222222" transform="translate(603,659)"/>
<path d="M0 0 C1.32 0.66 2.64 1.32 4 2 C4 2.66 4 3.32 4 4 C3.01 4.33 2.02 4.66 1 5 C0.01 4.01 -0.98 3.02 -2 2 C-1.34 1.34 -0.68 0.68 0 0 Z " fill="#202020" transform="translate(458,641)"/>
<path d="M0 0 C0.66 0.33 1.32 0.66 2 1 C1.34 2.98 0.68 4.96 0 7 C-0.99 6.67 -1.98 6.34 -3 6 C-1.125 1.125 -1.125 1.125 0 0 Z " fill="#222222" transform="translate(702,574)"/>
<path d="M0 0 C0.66 0.33 1.32 0.66 2 1 C1 3 0 5 -1 7 C-1.99 6.67 -2.98 6.34 -4 6 C-2.25 1.125 -2.25 1.125 0 0 Z " fill="#F0F3F4" transform="translate(560,552)"/>
<path d="M0 0 C0.66 0.33 1.32 0.66 2 1 C2.33 0.67 2.66 0.34 3 0 C3.66 0.99 4.32 1.98 5 3 C4.34 3 3.68 3 3 3 C2.67 3.66 2.34 4.32 2 5 C0.68 3.68 -0.64 2.36 -2 1 C-1.34 0.67 -0.68 0.34 0 0 Z " fill="#1F1F21" transform="translate(299,539)"/>
<path d="M0 0 C0.99 0.66 1.98 1.32 3 2 C-0.465 3.485 -0.465 3.485 -4 5 C-4.66 4.34 -5.32 3.68 -6 3 C-4.02 2.01 -2.04 1.02 0 0 Z " fill="#212425" transform="translate(592,532)"/>
<path d="M0 0 C0.66 0.33 1.32 0.66 2 1 C1.01 1.33 0.02 1.66 -1 2 C-1 3.32 -1 4.64 -1 6 C-2.32 5.67 -3.64 5.34 -5 5 C-5 4.34 -5 3.68 -5 3 C-2.625 1.3125 -2.625 1.3125 0 0 Z " fill="#DEDEDF" transform="translate(610,487)"/>
<path d="M0 0 C2.125 0.9375 2.125 0.9375 4 2 C3.34 3.32 2.68 4.64 2 6 C2 5.01 2 4.02 2 3 C0.68 3.33 -0.64 3.66 -2 4 C-2 3.01 -2 2.02 -2 1 C-1.34 0.67 -0.68 0.34 0 0 Z " fill="#110F10" transform="translate(508,465)"/>
<path d="M0 0 C1.32 0.66 2.64 1.32 4 2 C3.01 2.99 2.02 3.98 1 5 C0.01 4.01 -0.98 3.02 -2 2 C-1.34 1.34 -0.68 0.68 0 0 Z " fill="#202020" transform="translate(533,440)"/>
<path d="M0 0 C0.33 1.32 0.66 2.64 1 4 C-2 5 -2 5 -4.1875 4.0625 C-4.785625 3.711875 -5.38375 3.36125 -6 3 C-4.02 2.01 -2.04 1.02 0 0 Z " fill="#242424" transform="translate(555,402)"/>
<path d="M0 0 C1.98 0.66 3.96 1.32 6 2 C5.01 3.485 5.01 3.485 4 5 C2.02 4.01 0.04 3.02 -2 2 C-1.34 1.34 -0.68 0.68 0 0 Z " fill="#212121" transform="translate(548,391)"/>
<path d="M0 0 C0.66 0 1.32 0 2 0 C2.33 1.65 2.66 3.3 3 5 C1.68 4.67 0.36 4.34 -1 4 C-1.33 4.66 -1.66 5.32 -2 6 C-2 3 -2 3 0 0 Z " fill="#E7E8EB" transform="translate(323,302)"/>
<path d="M0 0 C1.65 1.65 3.3 3.3 5 5 C3.68 5 2.36 5 1 5 C0.34 3.68 -0.32 2.36 -1 1 C-0.67 0.67 -0.34 0.34 0 0 Z " fill="#222222" transform="translate(754,216)"/>
</svg>
